<?xml version="1.0" standalone="no"?>
<!DOCTYPE svg PUBLIC "-//W3C//DTD SVG 1.1//EN" "http://www.w3.org/Graphics/SVG/1.1/DTD/svg11.dtd" >
<svg xmlns="http://www.w3.org/2000/svg" xmlns:xlink="http://www.w3.org/1999/xlink" version="1.1">
<metadata>
Created by FontForge 20170924 at Sat Jan 11 17:45:48 2020
 By www-data
(C) Copyright 1991-2005 China Type Design Ltd. Agfa Monotype Corporation. All rights reserved.
</metadata>
<defs>
<font id="MBeiHK-Bold" horiz-adv-x="550" >
  <font-face 
    font-family="MBeiHK-Bold"
    font-weight="700"
    font-stretch="normal"
    units-per-em="1000"
    panose-1="0 0 8 0 0 0 0 0 0 0"
    ascent="800"
    descent="-200"
    x-height="502"
    cap-height="734"
    bbox="0 -180 965 831"
    underline-thickness="50"
    underline-position="-100"
    unicode-range="U+0021-7406"
  />
<missing-glyph horiz-adv-x="1000" 
d="M120 712q10 -7 8 -14t-7 -14.5t-6 -14.5q-9 -35 -11.5 -73.5t-2.5 -76.5q0 -32 -0.5 -74t-0.5 -83.5t1 -73.5q2 -10 3 -28t1 -35q-2 -7 -9 -9q-16 1 -32 4t-30 13q-9 8 -8 18q5 7 7.5 15t0.5 18q-1 48 -2.5 102t-3 103.5t-2.5 83.5q-1 43 -2 84.5t2 84.5q24 -6 48 -13
t46 -17zM135 56q-2 -16 -19 -19q-28 5 -55 14t-47 34q-5 10 -9.5 21t0.5 23q7 16 21 28t32 13q17 1 33 -8q14 -25 21 -53t23 -53z" />
    <glyph glyph-name=".notdef" horiz-adv-x="1000" 
d="M120 712q10 -7 8 -14t-7 -14.5t-6 -14.5q-9 -35 -11.5 -73.5t-2.5 -76.5q0 -32 -0.5 -74t-0.5 -83.5t1 -73.5q2 -10 3 -28t1 -35q-2 -7 -9 -9q-16 1 -32 4t-30 13q-9 8 -8 18q5 7 7.5 15t0.5 18q-1 48 -2.5 102t-3 103.5t-2.5 83.5q-1 43 -2 84.5t2 84.5q24 -6 48 -13
t46 -17zM135 56q-2 -16 -19 -19q-28 5 -55 14t-47 34q-5 10 -9.5 21t0.5 23q7 16 21 28t32 13q17 1 33 -8q14 -25 21 -53t23 -53z" />
    <glyph glyph-name="exclam" unicode="!" horiz-adv-x="262" 
d="M183 712q10 -7 8 -14t-7 -14.5t-6 -14.5q-9 -35 -11.5 -73.5t-2.5 -76.5q0 -32 -0.5 -74t-0.5 -83.5t1 -73.5q2 -10 3 -28t1 -35q-2 -7 -9 -9q-16 1 -32 4t-30 13q-9 8 -8 18q5 7 7.5 15t0.5 18q-1 48 -2.5 102t-3 103.5t-2.5 83.5q-1 43 -2 84.5t2 84.5q24 -6 48 -13
t46 -17zM198 56q-2 -16 -19 -19q-28 5 -55 14t-47 34q-5 10 -9.5 21t0.5 23q7 16 21 28t32 13q17 1 33 -8q14 -25 21 -53t23 -53z" />
    <glyph glyph-name="quotedbl" unicode="&#x22;" horiz-adv-x="380" 
d="M169 686l-2 -6t-3 -7q-4 -7 -6.5 -16.5t-4.5 -20.5q-6 -27 -8.5 -59.5t-4.5 -56.5q0 -3 -4 -12.5t-9 -18.5t-10 -10q-14 0 -22 14q-4 5 -5.5 17t-1.5 20q-1 32 -5.5 71t-8.5 72t-5 47q2 11 13.5 13t16.5 0q16 -7 37.5 -10t31.5 -18q2 -3 2.5 -9.5t-1.5 -9.5zM311 687
q-1 -3 -2 -6.5t-3 -7.5q-4 -7 -6.5 -16t-4.5 -20q-6 -28 -8.5 -60.5t-4.5 -55.5q0 -3 -4 -12.5t-9 -18.5t-10 -10q-14 0 -22 14q-4 5 -5.5 17t-1.5 19q-1 33 -5.5 71.5t-8.5 72t-5 47.5q2 11 14 13t16 0q16 -8 37.5 -10.5t31.5 -17.5q2 -4 2.5 -10t-1.5 -9z" />
    <glyph glyph-name="numbersign" unicode="#" 
d="M502 497l-97 -5l-14 -177l102 6l-4 -72l-104 -7l-15 -181l-67 8l13 169l-110 -6l-13 -166l-67 7l11 154l-94 -3l4 71l97 6l14 176l-101 -5l4 71l102 7l14 158l69 -4l-13 -150l109 6l12 150l69 -8l-12 -138l96 6zM228 481l-15 -176l108 7l15 176z" />
    <glyph glyph-name="dollar" unicode="$" 
d="M534 255q7 -48 -7.5 -89.5t-51.5 -72.5q-37 -30 -81.5 -42t-93.5 -13q-1 -19 0.5 -39t-0.5 -39q-13 -6 -26.5 0.5t-25.5 10.5q-7 7 -6 20t4 27t2 22q-13 -1 -30.5 1.5t-29.5 7.5q-51 11 -97.5 41t-74.5 78q3 14 15.5 23t12.5 25q2 10 -1 18t4 15q11 9 21 2
q12 -36 39.5 -66.5t64 -49.5t73.5 -23q-1 35 -2 76.5t-1.5 81.5t-1 69.5t-0.5 38.5q-42 13 -82 29t-75 44q-25 26 -36 61t-7 72q4 32 23 61t47 50t58 28q18 5 36.5 8t37.5 3q3 20 1.5 39t-0.5 40q5 11 15.5 6.5t18.5 -4.5q11 -4 21.5 -7.5t19.5 -10.5q2 -4 -1.5 -6t-3.5 -5
q-4 -11 -7 -22.5t-2 -25.5q20 -4 39.5 -7.5t37.5 -11.5q39 -16 73.5 -49t50.5 -74q-8 -9 -28.5 -21.5t-29.5 -26.5q-14 -6 -18 1t-5 18.5t-7 16.5q-17 35 -48.5 54t-66.5 26q-4 -55 -4 -110.5t-2 -112.5q34 -13 72.5 -27.5t74 -34.5t60 -50t31.5 -74zM241 665
q-37 -5 -72 -21.5t-52 -54.5q-6 -18 -3 -39t16 -35q23 -23 52 -34.5t57 -21.5q1 45 0 100.5t2 105.5zM458 245q-11 36 -38 56.5t-60 33t-63 24.5q-1 -66 0 -123.5t2 -125.5q30 2 59 7.5t54 21.5q28 17 39 45.5t7 60.5z" />
    <glyph glyph-name="percent" unicode="%" horiz-adv-x="834" 
d="M801 169q-9 -36 -36.5 -68t-62.5 -46q-41 -16 -87.5 -9t-79.5 33q-43 35 -57 86t-3 104q8 37 31 66.5t54.5 51.5t62.5 35q4 -2 11 -12.5t14 -21.5t12 -17q5 8 9.5 17l6.5 13q14 -1 26.5 -7.5t23.5 -14.5q51 -36 70.5 -92.5t4.5 -117.5zM658 720q-1 -1 -1 -3t-1 -4
q-50 -44 -77 -96q-16 -31 -38 -73t-46 -87.5t-46 -88.5t-39 -76q-19 -39 -46 -91t-56 -107.5t-55 -105.5q-2 -4 -7.5 -5t-9.5 2q-13 8 -24.5 18.5t-24.5 20.5q-3 7 1 10q29 21 46.5 50.5t33.5 60.5q29 55 67 127.5t79 151t79 151.5t68 130q6 11 13.5 27t11.5 24q3 5 9.5 3.5
t10.5 -3.5q10 -7 26 -18.5t26 -17.5zM373 567q8 -58 -12 -110t-70 -81q-25 -15 -57.5 -19t-64.5 3t-56 25q-46 35 -63 88.5t-5 111.5q7 34 29 64.5t53 53.5t64 32q8 -15 15.5 -30.5t17.5 -30.5l11.5 23t10.5 23q47 -19 83.5 -59.5t43.5 -93.5zM724 169q13 23 12.5 55
t-15.5 54q-16 23 -38 33.5t-48 11.5q6 10 9 16q-19 -2 -34 -10t-29 -21q-25 -23 -35 -54.5t-1 -65.5q8 -29 36 -49t58 -21q26 -1 49 13t36 38zM298 563q-8 30 -34 52t-56 26q0 4 2.5 8t4.5 8q-21 -4 -39.5 -14.5t-33.5 -28.5q-21 -25 -28 -58.5t4 -65.5q8 -22 28 -38t42 -20
q51 -10 86 22q22 20 27 50.5t-3 58.5z" />
    <glyph glyph-name="ampersand" unicode="&#x26;" horiz-adv-x="695" 
d="M683 60q-34 -13 -72 -19.5t-76 -1.5q-17 2 -31.5 3.5t-32.5 2.5q-10 0 -10 4q0 26 -10.5 48.5t-22.5 43.5q-40 -38 -89 -67t-103 -37t-111 16q-49 29 -75.5 79.5t-16.5 107.5q7 41 33.5 73.5t62 59t68.5 45.5q-22 32 -44.5 66.5t-32 72.5t6.5 80q14 36 41.5 58t62 32.5
t69.5 11.5q50 2 93 -24t68 -70q13 -23 14.5 -52.5t-6.5 -57.5t-26 -48q-28 -32 -65 -52t-72 -40q24 -34 55.5 -68t60.5 -69q38 56 68 120q5 5 12 0q18 -13 38 -22t39 -23q2 -11 -6.5 -14t-13.5 -9q-28 -25 -43.5 -55.5t-40.5 -56.5q22 -22 45.5 -41t48.5 -36
q29 -14 58.5 -23.5t55.5 -30.5q3 -2 2.5 -4.5t-2.5 -2.5zM389 554q6 18 6 39t-11 37q-13 17 -31 26t-37 13q-34 8 -64 -3.5t-49 -39.5q-14 -32 -6 -62.5t27 -58t37 -50.5q35 20 71.5 41t56.5 58zM378 206q-19 23 -44.5 53t-49.5 59t-39 46q-21 -14 -47 -31.5t-48 -39
t-33.5 -47t-4.5 -57.5q5 -25 26.5 -48.5t47.5 -28.5q59 -11 107 19t85 75z" />
    <glyph glyph-name="quotesingle" unicode="'" horiz-adv-x="258" 
d="M178 686q-1 -3 -2.5 -6l-3.5 -7q-4 -7 -6.5 -16.5t-4.5 -20.5q-6 -27 -8.5 -59.5t-4.5 -56.5q0 -3 -4 -12.5t-9 -18.5t-10 -10q-14 0 -22 14q-4 5 -5.5 17t-1.5 20q-1 32 -5.5 71t-8.5 72t-5 47q2 11 14 13t16 0q16 -7 37.5 -10t32.5 -18q1 -3 1.5 -9.5t-0.5 -9.5z" />
    <glyph glyph-name="parenleft" unicode="(" horiz-adv-x="372" 
d="M346 -124q-19 -13 -37 -25t-38 -24q-64 67 -115 144.5t-79 163t-25 174.5q2 34 8 69t18 70q28 79 73.5 150.5t105.5 136.5q23 -13 45 -26.5t37 -24.5q5 -4 5.5 -8t-1.5 -5q-57 -30 -98.5 -80t-68 -110t-38.5 -122q-18 -94 7 -178.5t79 -158t122 -136.5q1 -1 2.5 -4
t-2.5 -6z" />
    <glyph glyph-name="parenright" unicode=")" horiz-adv-x="372" 
d="M325 309q3 -89 -25.5 -174.5t-79 -163t-114.5 -144.5q-20 12 -38 24t-37 25q-4 3 -2.5 6t2.5 4q69 63 122.5 136.5t78.5 158t6 178.5q-12 62 -38 122t-67 110t-99 80q-1 1 -1.5 5t5.5 8q14 11 36 24.5t45 26.5q61 -65 106.5 -136.5t73.5 -150.5q12 -35 18.5 -70t7.5 -69z
" />
    <glyph glyph-name="asterisk" unicode="*" horiz-adv-x="416" 
d="M47 587l23 70q41 -15 67 -26t45 -22l-1 11q-3 35 -5 53.5t-2.5 31t-0.5 26.5h70q-1 -27 -2 -51t-7 -59l-2 -11q23 11 55 24t60 23l23 -70q-27 -9 -61.5 -16.5t-60.5 -10.5q8 -7 9 -8q5 -4 13 -13.5t20 -22.5l34 -38l8 -10l-58 -42q-17 23 -29 42t-32 53l-6 10l-5 -9
q-19 -34 -31 -55t-28 -41l-57 42l6 7l35 42q17 21 23.5 27.5t16.5 15.5q-33 7 -61.5 13.5t-58.5 13.5z" />
    <glyph glyph-name="plus" unicode="+" horiz-adv-x="620" 
d="M556 392q-4 -5 -2 -15t-6 -12q-54 9 -105 7t-107 -8q-1 -46 1 -102.5t3 -101.5q2 -8 -7 -10q-22 3 -40 10.5t-36 17.5q-6 8 -3 15q10 13 12.5 40.5t3.5 57.5q1 13 0.5 33.5t-0.5 33.5q-44 -5 -90.5 -16t-81.5 -28q-9 21 -16 43.5t-18 41.5q-1 4 6 4q54 1 103 4.5t96 8.5
q0 47 0.5 102.5t4.5 104.5q2 6 7.5 5.5t8.5 -2.5q14 -7 28.5 -13.5t27.5 -14.5l7.5 -5t6.5 -7q-14 -20 -18.5 -48t-4.5 -57.5v-55.5q33 5 66.5 11t68.5 13q8 2 16 5.5t17 4.5q6 -5 15 -18.5t19 -27t17 -21.5z" />
    <glyph glyph-name="comma" unicode="," horiz-adv-x="278" 
d="M209 118q6 -31 -7 -56.5t-24 -51.5q-17 -26 -34 -53.5t-43 -49.5q-2 1 -5 0t-3 3q34 59 46 127q-14 12 -29 22l-30 20q-10 30 -3 63q11 14 25 25.5t29 19.5q24 -5 45.5 -26t32.5 -43z" />
    <glyph glyph-name="hyphen" unicode="-" horiz-adv-x="330" 
d="M224 332q8 2 16 5.5t16 4.5q7 -5 16 -18t19 -26.5t17 -21.5q-4 -6 -2 -15.5t-6 -11.5q-59 6 -119 2.5t-125 -33.5q-8 21 -15.5 43.5t-18.5 41.5q-1 4 6 4q67 0 110 6t86 19z" />
    <glyph glyph-name="period" unicode="." horiz-adv-x="278" 
d="M216 48q-12 -13 -27.5 -13t-31.5 6t-29 10q-12 11 -27 17t-23 22q-5 11 -10.5 20.5t0.5 21.5q9 14 14.5 31.5t24.5 22.5q11 13 32 13t33 -14q13 -15 16.5 -33.5t12.5 -35.5q6 -16 15 -32.5t0 -35.5z" />
    <glyph glyph-name="slash" unicode="/" horiz-adv-x="350" 
d="M175 519q6 26 14.5 64.5t17.5 78t15 67.5q2 4 5 9.5t9 1.5q23 -11 47.5 -16.5t43.5 -20.5q2 -6 -2.5 -11.5t-8.5 -10.5l-20 -28q-28 -66 -50 -127.5t-40 -127.5q-4 -8 -8.5 -29t-9.5 -32q-12 -44 -29.5 -93t-32.5 -98.5t-21 -95.5q-1 -10 -9 -11t-15 0q-16 4 -36.5 11
t-23.5 26q2 11 10.5 15.5t12.5 14.5q22 64 44 129t41 129q12 38 26 82.5t20 72.5z" />
    <glyph glyph-name="zero" unicode="0" 
d="M485 561q10 -39 14.5 -80t5.5 -83q1 -67 -11 -133t-40 -122q-22 -45 -67 -74t-98 -31t-98.5 17t-77.5 62q-40 56 -53.5 124.5t-12.5 138.5q0 26 1.5 50.5t3.5 49.5q4 50 22.5 99.5t54 88t89.5 55.5q14 5 28.5 7.5t29.5 3.5q8 -16 12 -34t11 -35q8 12 15.5 25.5t15.5 25.5
q38 -7 70 -31t54.5 -57t30.5 -67zM417 313q5 51 6 102t-10 99t-42 88q-17 19 -38.5 26.5t-47.5 8.5q0 5 4.5 9t2.5 8q-16 -2 -32.5 -5t-30.5 -10q-39 -18 -59.5 -50t-28 -70.5t-9.5 -76.5q-3 -53 -2 -108t16.5 -105.5t55.5 -89.5q20 -16 45.5 -23.5t51.5 -0.5q46 12 70 44
t34.5 73.5t13.5 80.5z" />
    <glyph glyph-name="one" unicode="1" 
d="M337 708q-1 -10 -5.5 -19t-7.5 -18q-7 -52 -10 -108t-5 -112q0 -27 -1 -65t-2 -79t-2 -79t-2 -66q-1 -30 1 -60t6 -60q-19 -4 -39.5 -0.5t-38.5 7.5q-5 2 -10.5 4.5t-7.5 7.5q1 10 6 18t8 16q2 65 0.5 129.5t-3.5 128.5q-1 30 -1 75t0.5 90t0.5 76q0 17 1 42t2 50.5
t1 41.5q2 10 9 7q25 -5 51.5 -9t48.5 -18z" />
    <glyph glyph-name="two" unicode="2" 
d="M515 82q-116 13 -232.5 2.5t-222.5 -39.5q-6 21 -13 44.5t-12 38.5q12 15 28.5 27.5t30.5 25.5q80 77 156.5 160t128.5 173q11 25 17 55.5t-14 55.5q-16 20 -38.5 28t-48.5 7q-33 0 -64 -16.5t-54.5 -42t-36.5 -54.5q-6 -13 -7 -28t-1 -29q-10 -4 -17 0.5t-13 12
t-14 10.5q-13 8 -25 19t-24 21q19 47 55.5 87t84 66.5t99.5 30.5q58 5 108 -15.5t79 -67.5q23 -37 23.5 -74.5t-13.5 -73.5t-37 -69.5t-47 -62.5q-52 -63 -113.5 -119t-123.5 -112q25 2 50.5 6.5t51.5 6.5q48 4 95 11t92 18q30 -30 66 -60q8 -4 7.5 -18t-1.5 -25z" />
    <glyph glyph-name="three" unicode="3" 
d="M505 253q8 -56 -19.5 -103.5t-76.5 -75.5q-38 -21 -86 -29t-95.5 -1t-84.5 31q-34 22 -62.5 52t-45.5 63q14 15 24 33t17 35q5 2 11 3.5t9 2.5q9 -33 31.5 -65t54 -55t67.5 -30q38 -7 75 2.5t63 38.5q23 25 28.5 60t-8.5 65q-19 40 -60 61t-87 16q-13 1 -23.5 -6
t-22.5 -8q-12 20 -17.5 40t-13.5 42q-1 3 1 5t4 1q41 3 82.5 8.5t75.5 23.5t51 59q11 26 7.5 55.5t-27.5 49.5q-28 23 -64.5 27t-69.5 -10q-32 -13 -60 -41.5t-31 -63.5q-4 -3 -7.5 -5t-8.5 1q-19 11 -37 27t-37 29q16 26 45.5 55.5t59.5 49.5q28 19 55 26t49 8
q59 2 111.5 -15.5t86.5 -65.5q25 -35 25.5 -83.5t-20.5 -85.5q-16 -28 -44 -48.5t-58 -30.5q32 -9 61 -31.5t48.5 -53t23.5 -63.5z" />
    <glyph glyph-name="four" unicode="4" 
d="M529 242q-14 -1 -40 -1h-53t-46 -3q0 -51 1 -99.5t6 -95.5q-1 -10 -9.5 -7.5t-13.5 -0.5q-15 3 -28.5 6.5t-27.5 8.5q-7 4 -3 14q2 5 3.5 13.5t2.5 15.5v44t-0.5 51.5t-0.5 41.5q-73 -6 -134.5 -19.5t-127.5 -39.5q-9 17 -17.5 35.5t-19.5 34.5q47 113 104 219.5
t122 210.5q2 4 8 1q14 -17 28 -32.5t24 -35.5q-7 -11 -16 -18.5t-16 -17.5q-51 -73 -93 -149t-75 -156q103 22 213 41q4 108 9 217t18 214q24 -8 48 -17.5t46 -20.5q4 -3 2 -7.5t-4 -7.5q-10 -10 -14.5 -22t-8.5 -25q-10 -77 -15.5 -158t-8.5 -161q9 0 23.5 3t28 7t18.5 6
q6 2 11 -2q10 -10 26.5 -26t25.5 -25q4 -16 4 -37z" />
    <glyph glyph-name="five" unicode="5" 
d="M501 640q-23 0 -64 -1.5t-88 -5.5t-89 -10t-68 -15q-9 -42 -18 -85.5t-14 -87.5q30 25 70 41t83 18t83 -16q62 -37 87.5 -100t15.5 -131q-8 -55 -40 -105.5t-88 -78.5q-43 -21 -92 -22t-96 14t-83 42q-14 11 -27 24t-24 26q3 11 7.5 20.5t7.5 19.5q4 11 7.5 21.5
t4.5 22.5q5 2 15.5 5.5t18.5 6.5q10 -33 34.5 -61.5t58 -46t69.5 -19.5q37 -1 69.5 18.5t49.5 50.5q15 29 21 63t0 67.5t-28 60.5q-19 26 -50 34t-62 3q-37 -5 -71 -30t-53 -59q-19 6 -38 15.5t-38 18.5q8 80 15 160.5t13 161.5q83 3 164 13t154 39q14 -10 39 -28t41 -31
q2 -7 2.5 -16t0.5 -17z" />
    <glyph glyph-name="six" unicode="6" 
d="M495 356q16 -41 16.5 -87t-14.5 -89t-49 -75q-42 -41 -97 -55.5t-113 -2.5q-38 8 -74 30.5t-62.5 55t-36.5 68.5q-22 85 -13.5 169t48 158.5t110.5 129.5q36 29 78 47t87 29q14 -13 35 -33.5t34 -32.5q-5 -9 -11 -26q-61 6 -114.5 -14.5t-94.5 -61.5q-34 -32 -52 -71.5
t-28 -81.5q35 40 84 59.5t106 12.5q53 -7 97.5 -44t63.5 -85zM408 181q15 25 19.5 56.5t-2 63.5t-23.5 56q-19 29 -51 42.5t-67 11.5q-39 -1 -70.5 -27t-48.5 -58q-17 -20 -19 -45.5t5.5 -50.5t17.5 -46q17 -34 50.5 -51.5t70.5 -18.5q37 0 68 18t50 49z" />
    <glyph glyph-name="seven" unicode="7" 
d="M523 664q-45 -52 -75.5 -107t-59.5 -114q-48 -97 -94.5 -200t-66.5 -211q-7 -4 -13.5 0t-13.5 5q-13 8 -26.5 19t-23.5 23q2 14 13 23.5t15 22.5q32 91 67.5 185t75.5 182q8 18 19 42.5t22 48.5t18 39q3 14 -12 18q-30 5 -61 1t-60 -9q-46 -8 -91.5 -19t-84.5 -37
q-6 -1 -6 6q-7 24 -14.5 45t-13.5 46q100 12 201.5 24.5t198.5 31.5q23 -10 44.5 -24t42.5 -28q1 -1 0.5 -6t-1.5 -7z" />
    <glyph glyph-name="eight" unicode="8" 
d="M510 483q-79 -27 -151 -67q28 -15 58 -34t54 -43.5t34 -56.5q15 -47 5.5 -98t-47.5 -87q-36 -34 -85.5 -49t-101.5 -13t-99 16q-50 16 -84 56.5t-43 88.5q-8 49 12 86.5t55 68t71 56.5q-27 14 -53 34.5t-44 46.5t-21 56q-4 39 9.5 74.5t46.5 61.5q47 38 110 47.5
t122 -7.5q29 -12 57.5 -23t52.5 -33q-10 -36 -12 -75q-4 -1 -9.5 -5t-13.5 -9q-32 41 -78 61t-101 12q-29 -4 -58 -21t-40 -47q-4 -31 15.5 -53.5t48 -38.5t51.5 -28q45 25 88 47.5t88 45.5q9 6 13 -1q14 -17 28 -33t22 -36zM429 235q-6 37 -32.5 61t-60.5 41t-64 30
q-12 -8 -30.5 -20.5t-28.5 -19.5q-25 -17 -48.5 -40t-30.5 -52q-7 -30 5.5 -56t37.5 -43q27 -18 63.5 -24t73 -0.5t64.5 20.5q29 17 42.5 45t8.5 58z" />
    <glyph glyph-name="nine" unicode="9" 
d="M532 618q-20 -25 -34.5 -52t-26.5 -56q-19 -47 -40 -103.5t-40.5 -113.5t-36 -107.5t-28.5 -86.5q-4 -9 -4 -21.5t-1.5 -22.5t-13.5 -15q-19 2 -35 11t-31 21q-6 11 4 19.5t13 18.5q17 47 30.5 94.5t29.5 93.5q-22 -4 -45.5 -8.5t-48.5 -3.5q-61 5 -111.5 43.5
t-72.5 95.5q-16 59 -4.5 123t54.5 110q41 43 96 64t114 6q38 -9 71 -31t61 -54l10 25t9 23q9 1 16.5 -5t15.5 -10q14 -11 27 -20.5t21 -24.5q3 -7 1 -13zM405 570q-26 30 -57.5 52t-67.5 29q-41 8 -77 -7.5t-61 -50.5q-22 -31 -26.5 -71.5t8.5 -78.5q10 -27 33.5 -48.5
t49.5 -28.5q36 -10 74 -3.5t66 29.5q13 45 27.5 89.5t30.5 88.5z" />
    <glyph glyph-name="colon" unicode=":" horiz-adv-x="278" 
d="M209 392q-20 -17 -48.5 -14.5t-49.5 13.5q-13 10 -21 21.5t-16 23.5q7 12 8.5 25.5t6 25.5t19.5 18q8 3 16 6.5t18 4.5q23 -18 34.5 -43t30.5 -46q2 -9 6 -18t-4 -17zM209 50q-11 -12 -25.5 -12t-29 5.5t-26.5 8.5q-10 11 -23.5 16.5t-21.5 19.5q-4 9 -9 18.5t-1 19.5
q8 13 13.5 28.5t22.5 20.5q10 12 29.5 12.5t29.5 -12.5q11 -14 15 -31t11 -32t15 -30t0 -32z" />
    <glyph glyph-name="semicolon" unicode=";" horiz-adv-x="278" 
d="M203 386q-2 -4 -4 -6q-7 -1 -20 -3t-21 -4q-19 14 -39 30t-34 35q-4 9 -3.5 17.5t1.5 17.5q9 11 20.5 19.5t22.5 18.5q19 -2 37 -5q6 -8 15.5 -13.5t9.5 -16.5q0 -23 2 -46.5t13 -43.5zM201 111q6 -28 -5.5 -51.5t-23.5 -45.5q-14 -25 -30 -49.5t-39 -44.5q-2 0 -5 -0.5
t-2 3.5q15 26 26 55t16 60q-13 11 -27 20l-28 18q-8 29 -2 58q22 26 49 40q23 -4 42 -23.5t29 -39.5z" />
    <glyph glyph-name="less" unicode="&#x3c;" horiz-adv-x="620" 
d="M507 511l-284 -124l277 -120q17 -7 22 -22.5t0 -29.5q-5 -13 -17.5 -20.5t-30.5 -2.5l-334 147q-39 17 -39 47q-2 31 42 51l329 144q17 8 30.5 1t20.5 -19q8 -13 5.5 -28.5t-21.5 -23.5z" />
    <glyph glyph-name="equal" unicode="=" horiz-adv-x="620" 
d="M98 419q-9 21 -16 43.5t-18 41.5q-1 4 6 4q75 1 140 7t129 16t133 23q8 2 16 5.5t17 4.5q6 -5 15 -18.5t19 -27t17 -21.5q-4 -5 -2 -15t-6 -12q-57 10 -112.5 6.5t-111.5 -7.5q-32 -2 -72 -8t-80 -16t-74 -26zM98 213q-8 21 -15.5 43.5t-18.5 41.5q-1 4 6 4q75 1 140.5 7
t129 16t132.5 23q8 2 16 5.5t17 4.5q6 -5 15 -18t19 -27t17 -22q-4 -5 -2 -15t-6 -12q-57 10 -112.5 6.5t-111.5 -7.5q-49 -4 -112.5 -15.5t-113.5 -34.5z" />
    <glyph glyph-name="greater" unicode="&#x3e;" horiz-adv-x="620" 
d="M483 339l-334 -147q-18 -5 -30.5 2.5t-17.5 20.5q-5 14 -0.5 29.5t22.5 22.5l277 120l-284 124q-19 8 -21 24t5 29q8 13 21.5 19t29.5 -2l329 -144q44 -20 42 -51q0 -29 -39 -47z" />
    <glyph glyph-name="question" unicode="?" horiz-adv-x="489" 
d="M453 633q23 -56 4.5 -111t-55.5 -98q-20 -23 -46 -42.5t-48.5 -40.5t-31.5 -52q-12 -37 -15 -78q-13 -9 -26.5 -1t-26.5 14q-5 7 -13.5 12t-3.5 16q17 27 23.5 57.5t25.5 56.5q23 31 54 55t58 50t37 63q6 22 4 46.5t-16 41.5q-24 32 -60.5 45t-76.5 6q-32 -6 -62 -24.5
t-45 -50.5q-10 -19 -16.5 -40.5t-4.5 -44.5q2 -11 -10 -14q-20 5 -39.5 14t-36.5 24q8 40 29.5 78.5t54 68t72.5 42.5q38 12 79.5 13.5t81 -10t68.5 -38.5q28 -25 42 -58zM296 60q-4 -9 -13.5 -15t-19.5 -9q-24 11 -49 20.5t-42 31.5q-5 12 -4.5 27t8.5 26q12 15 31 24.5
t38 -1.5q12 -26 23.5 -52.5t27.5 -51.5z" />
    <glyph glyph-name="at" unicode="@" horiz-adv-x="727" 
d="M261 53q-54 11 -100 41.5t-77.5 76t-43.5 99.5q-17 79 -3.5 154t55.5 139t109 108q48 32 108 48t123 13t118 -28q45 -20 87 -61t58 -90q25 -72 7.5 -144.5t-58.5 -128.5q-30 -40 -69.5 -65t-83.5 -39q-16 4 -28.5 13.5t-24.5 19.5q-4 5 -7 15q-28 -26 -62 -42.5
t-75 -11.5q-43 6 -73 39.5t-38 73.5q-14 71 3.5 141.5t67.5 121.5q34 34 79.5 45t92.5 0q15 -4 28.5 -10t26.5 -13q2 11 4.5 21t7.5 19q8 -7 16.5 -12t18.5 -10q8 -4 17.5 -9t16.5 -12q-1 -14 -8.5 -23t-10.5 -20q-19 -64 -30 -131t-17 -137q5 -4 10.5 -0.5t9.5 6.5q4 4 8 5
q58 44 89.5 106t20.5 135q-4 31 -23 59.5t-46 50t-57 31.5q-57 20 -116.5 17.5t-113 -27t-92.5 -71.5q-50 -60 -74 -136t-1 -157q13 -44 45.5 -77t75.5 -53.5t86 -27.5q67 -10 132 -3t122.5 36t101.5 83q11 -4 14.5 -10t2.5 -13t-1.5 -13t1.5 -13q0 -12 5 -22.5t9 -21.5
q-59 -50 -134 -73.5t-154.5 -25t-155.5 13.5zM371 531q-29 -2 -55.5 -22.5t-40.5 -48.5q-20 -41 -26.5 -94.5t13.5 -97.5q6 -13 19.5 -20t27.5 -9q41 2 73.5 29.5t56.5 61.5q6 42 13 84.5t14 84.5q-21 16 -44.5 25t-50.5 7z" />
    <glyph glyph-name="A" unicode="A" horiz-adv-x="658" 
d="M644 54q-16 -19 -43 -19t-50 5q-4 4 -9 6.5t-7 7.5q2 6 4.5 12.5t0.5 13.5q-6 17 -14.5 40t-16.5 45t-14 36q-39 99 -82 195.5t-79 171.5q-3 3 -4.5 9t-6.5 8q-39 -67 -71 -139t-61 -145q45 2 89 10.5t87 18.5q9 2 21 9q9 -10 24.5 -28t24.5 -29q1 -9 -4 -16.5t-1 -17.5
q-43 5 -89.5 -1.5t-89.5 -17.5q-12 -4 -25 -10t-24 -14q-7 12 -15.5 23.5t-17.5 22.5q-15 -31 -24.5 -64.5t-21.5 -66.5q-4 -12 -5 -26.5t-5 -27.5t-17 -21q-22 -5 -45 -3.5t-37 20.5q-2 6 3 10.5t9 7.5q24 75 49.5 149.5t57.5 145.5q14 30 30.5 67.5t32 72.5t24.5 56
q20 45 43.5 88t49.5 85q23 -12 43 -26t41 -26q-1 -5 -10.5 -8.5t-14.5 -10.5q12 -25 29.5 -61.5t36 -76.5t35.5 -77.5t30 -64.5q35 -76 64 -153t62 -154q3 -7 9 -14.5t4 -17.5z" />
    <glyph glyph-name="B" unicode="B" horiz-adv-x="544" 
d="M523 254q5 -55 -17 -103t-70 -74q-49 -26 -107 -32.5t-116 2.5t-108 29q-2 -8 -1 -19.5t-1 -20.5q-19 2 -38 8.5t-36 14.5q-7 7 -5 13t7 12.5t5 13.5q1 31 3.5 76.5t5.5 91t4 75.5q4 74 9.5 135t14.5 129q-13 17 -27 34t-20 38q78 31 167 47.5t177 -2.5q38 -8 74 -36
t50 -67q16 -43 9 -90t-45 -79q-14 -15 -31 -24.5t-35 -17.5q31 -11 60 -34.5t48.5 -54t22.5 -65.5zM423 528q9 20 6.5 43.5t-13.5 40.5q-23 30 -58.5 39t-74 6t-72.5 -9q-9 -4 -21 -5t-22 -5t-13 -18q-9 -45 -15 -91.5t-11 -92.5q13 -2 28 -1q36 2 75 2.5t76.5 7.5t67.5 26
t47 57zM428 175q20 32 16.5 68.5t-23.5 64.5q-30 32 -69.5 45t-82.5 16t-85 2q-16 -2 -33 -2.5t-32 -6.5q-2 -30 -6 -67t-6 -75t0 -70q29 -13 60.5 -23t64.5 -12q36 -2 73 -0.5t69.5 15t53.5 45.5z" />
    <glyph glyph-name="C" unicode="C" horiz-adv-x="650" 
d="M630 186q-54 -87 -143.5 -124.5t-187.5 -24.5q-60 9 -113 42t-91 82.5t-54 106.5q-12 44 -14.5 94t5.5 98.5t28 88.5q19 48 59.5 87.5t85.5 63.5q61 33 134 34t134 -25q21 -9 46 -28.5t48 -45.5t40 -53.5t23 -51.5q-20 -10 -40 -21.5t-41 -19.5q-12 2 -9.5 12.5
t-1.5 17.5q-13 40 -42 79.5t-72 52.5q-64 20 -129 3t-112 -64q-41 -41 -59.5 -95.5t-17 -113t18.5 -112.5q15 -44 48 -79.5t76.5 -57t88.5 -25.5q66 -5 123 27t90 90q8 14 13.5 27.5t9.5 27.5q6 -1 14.5 -2.5t9.5 -8.5q4 -22 10.5 -43.5t21.5 -38.5z" />
    <glyph glyph-name="D" unicode="D" horiz-adv-x="668" 
d="M633 305q-12 -58 -47.5 -111.5t-86 -91.5t-108.5 -52q-66 -16 -137.5 -10t-130.5 34q-1 -10 1 -21t-4 -18q-20 5 -40 11t-39 14q-6 8 0 14.5t8 13.5q0 128 3.5 262t22.5 258q-13 17 -27.5 34.5t-22.5 36.5q89 37 194 50t205 -4q26 -7 51 -17.5t47 -27.5
q59 -42 87.5 -103.5t33.5 -131.5t-10 -140zM542 277q18 51 22.5 108.5t-9 112.5t-51.5 97q-31 35 -72 48.5t-86 15t-89 -0.5q-24 -6 -45 -6.5t-37 -12.5q-6 -4 -8.5 -10.5t-6.5 -8.5q-17 -110 -26.5 -228.5t-12.5 -228.5q45 -34 102 -44.5t115 -3.5q44 5 85 27.5t72.5 57.5
t46.5 77z" />
    <glyph glyph-name="E" unicode="E" horiz-adv-x="554" 
d="M533 672q-1 -5 -2 -13t-3 -16q-37 3 -78 3.5t-79 -4.5q-49 -6 -96.5 -13.5t-95.5 -14.5q-17 -6 -23 -19t-8.5 -28t-7.5 -28q-5 -31 -12 -62t-9 -65q61 -1 119 9t114 20q8 3 21.5 8t20.5 6q8 -3 11 -11t9 -14q8 -10 18.5 -18t20.5 -16q-1 -11 -4.5 -20.5t-7.5 -17.5
q0 -3 -3.5 -4.5t-6.5 -0.5q-69 12 -137.5 3t-130.5 -32q-13 16 -23.5 34t-20.5 34q-4 -53 -8 -108.5t6 -108.5q4 -22 23.5 -34.5t38.5 -17.5q45 -10 92 -3.5t91 13.5q26 4 48.5 14.5t42.5 26.5q14 -20 31.5 -39t36.5 -37l-7 -14t-8 -14q-21 1 -41.5 -4t-42.5 -6
q-51 -3 -107 -13t-109 -8q-34 2 -66.5 12.5t-59.5 36.5q-17 17 -27 37.5t-15 42.5q-8 37 -6 77.5t4 78.5q9 140 39 270q-3 2 -5.5 0t-5.5 0q-11 19 -21.5 35.5t-15.5 35.5q-2 4 0 6.5t6 1.5q99 8 193 20.5t188 35.5q11 3 27.5 7t26.5 6q8 -4 10 -12t8 -15q9 -13 21.5 -24
t25.5 -19z" />
    <glyph glyph-name="F" unicode="F" horiz-adv-x="521" 
d="M511 662q-1 -7 -1 -16v-14q-93 4 -182.5 -5t-174.5 -29q-7 -40 -14 -81.5t-11 -83.5q9 -2 29 0q56 7 109 18.5t105 27.5q14 -16 30.5 -27.5t32.5 -25.5q0 -6 -1 -15t-3 -17q-68 -1 -135 -9.5t-129 -25.5q-10 10 -21.5 20.5t-18.5 16.5q-8 -84 -13 -170.5t0 -174.5
q0 -6 -4.5 -9t-9.5 -5q-16 7 -33 14.5t-33 19.5q-1 2 -2 5t-2 4q2 7 5 19.5t4 19.5q3 125 9.5 251t20.5 250q-5 11 -11 25l-9 21q64 3 122 11.5t116 17.5q41 6 82.5 13.5t83.5 17.5q10 -18 26 -35t33 -29z" />
    <glyph glyph-name="G" unicode="G" horiz-adv-x="665" 
d="M642 135q-1 -24 -3 -46.5t-5 -45.5q2 -12 -7 -10q-21 9 -41 16.5t-34 26.5q0 11 5.5 19t7.5 17q1 7 1.5 15t0.5 12q-62 -61 -144.5 -85.5t-168.5 -5.5q-46 10 -87.5 40t-72.5 70.5t-47 83.5q-25 67 -25 139t26.5 138.5t79.5 115.5q59 54 131 80.5t153 13.5q41 -6 82 -22
t71 -46q11 -10 26.5 -29t29 -39.5t16.5 -36.5q-17 -14 -35 -28t-37 -24q-9 -1 -10 6.5t-3 11.5q-5 37 -29.5 70.5t-60.5 47.5q-46 18 -96 17.5t-96 -18.5t-82 -52q-41 -39 -63 -90.5t-24.5 -107t14.5 -107.5q12 -38 36 -72.5t60 -60.5q34 -24 77.5 -31.5t87.5 0t78 27.5
q30 18 59.5 43t49.5 56q-3 18 -9 36t-24 28q-23 8 -43 0t-36 -25q-3 -5 -5.5 -10.5t-7.5 -10.5l-9 2q-35 32 -61 67q14 8 38.5 18.5t40.5 15.5q31 9 63.5 11.5t61.5 -14.5q28 -15 40.5 -39.5t18.5 -51.5q7 -32 7.5 -67.5t3.5 -68.5z" />
    <glyph glyph-name="H" unicode="H" horiz-adv-x="577" 
d="M556 699q-8 -22 -14 -40.5t-7 -43.5q-4 -112 -5 -219t-1 -216q0 -37 1.5 -72t6.5 -70q-19 0 -37.5 6.5t-36.5 12.5q-2 2 -5 4t-5 5q-1 8 4 13.5t5 12.5q0 12 0.5 28.5t-0.5 24.5q-1 30 -2.5 71.5t-2.5 82t-2 66.5q-75 14 -151.5 2t-144.5 -36q-9 13 -21.5 22.5
t-23.5 20.5q-1 -18 -1.5 -55.5t0 -85.5t0.5 -98.5v-95.5q-6 -5 -13 -2t-14 3q-16 7 -34.5 13.5t-29.5 23.5q4 5 9.5 9.5t7.5 11.5q1 8 2 19.5t2 19.5q-1 49 -2 115t-1 136.5t1 135.5t2 111q1 24 2.5 49.5t3.5 50.5q28 -6 54.5 -15.5t51.5 -21.5v-3v-4q-16 -22 -25 -47
t-8 -54q-2 -46 -4.5 -92t-3.5 -91q54 7 108 16t107 19q19 4 36 9t36 8l53 -60q1 18 1.5 56.5t0.5 83.5t-0.5 84.5t-0.5 60.5q0 7 -1 21.5t-2 24.5q27 -3 52.5 -9t50.5 -13q5 -1 1 -9z" />
    <glyph glyph-name="I" unicode="I" horiz-adv-x="230" 
d="M178 709q3 -10 -4 -19t-9 -19q-7 -22 -11 -46t-5 -50q-1 -45 -2 -105t-1 -124.5t1 -122.5t2 -99q1 -20 3.5 -40.5t0.5 -41.5q-6 -4 -13 -2.5t-14 2.5q-17 5 -35.5 8t-32.5 14q-4 8 4 13.5t9 12.5q5 34 6 71.5t0 70.5q0 29 -0.5 68t-1 76.5t-1.5 61.5q-1 73 2.5 147
t-1.5 149q26 -4 52 -10.5t51 -14.5z" />
    <glyph glyph-name="J" unicode="J" horiz-adv-x="445" 
d="M412 701q9 -10 2 -20t-9 -20q-13 -34 -12.5 -72.5t0.5 -76.5q1 -73 0.5 -154.5t-1.5 -169.5q-1 -45 -29 -85.5t-72 -54.5q-64 -20 -126.5 -4.5t-110.5 58.5q-13 12 -24.5 25.5t-22.5 26.5q14 18 25.5 37t13.5 42q12 3 22 2q14 -31 37.5 -61.5t55 -50t68.5 -18.5
q23 1 46 13t35 35q16 42 14 91.5t-1 91.5q2 87 -1.5 193t-3.5 206q24 -6 47.5 -14.5t46.5 -19.5z" />
    <glyph glyph-name="K" unicode="K" horiz-adv-x="615" 
d="M600 45q-6 -4 -13 -3q-48 -2 -89 -4t-88 4q-10 0 -13 7q3 33 -11 59t-33.5 50t-35.5 49q-29 37 -57.5 75.5t-63.5 71.5q-22 -16 -43.5 -35t-42.5 -36q1 -25 1.5 -62.5t1.5 -75.5t0 -63q0 -10 2.5 -20.5t-5.5 -18.5q-22 -1 -42.5 7t-38.5 18q-6 7 -3.5 12.5t8 11t5.5 11.5
l4 42q-1 42 -2 89.5t-2 91t-2 72.5q-2 95 1.5 175t10.5 164q13 -3 34 -11.5t40 -16.5t24 -11q-24 -55 -27 -120q-1 -25 -3 -64t-3 -78.5t-2 -66.5q77 68 151 142t135 156q11 14 23 33t22 32q25 -13 49 -32.5t43 -41.5q-5 -10 -17 -13t-20 -11q-61 -53 -119 -107.5
t-116 -111.5q-7 -6 -2.5 -13.5t5.5 -15.5q8 -10 15.5 -21.5t12.5 -19.5q17 -19 40.5 -48t48.5 -59t45 -55q22 -33 52.5 -53t62 -38.5t57.5 -46.5z" />
    <glyph glyph-name="L" unicode="L" horiz-adv-x="439" 
d="M426 104q-2 -5 -4.5 -11.5t-4.5 -10.5q-79 2 -157 -5.5t-154 -21.5q-12 -2 -33.5 -6t-35.5 -9q0 18 -2 46.5t-2 53.5q0 71 1 151t3 156.5t4 136.5q2 37 3.5 76.5t5.5 76.5q26 -5 51 -14t48 -20q2 -3 -3 -10q-12 -18 -17.5 -35.5t-8.5 -39.5q-3 -118 -10 -244t-1 -249
q26 4 62 9.5t75 11.5t74 11.5t59 9.5q7 -18 19.5 -33.5t27.5 -29.5z" />
    <glyph glyph-name="M" unicode="M" horiz-adv-x="761" 
d="M727 726q11 -7 9 -17.5t-7 -21.5t-4 -22q0 -13 -1.5 -29t-1.5 -27q1 -143 1 -287.5t2 -284.5q-2 -4 -6.5 -3.5t-7.5 0.5q-16 8 -34 13t-34 15q-11 7 -9 14.5t8.5 15.5t7.5 15q1 5 2.5 17.5t1.5 20.5v65t-0.5 75.5t-0.5 61.5q0 53 -2 107.5t-5 107.5q-14 -22 -35 -56
t-43.5 -69t-39.5 -62q-24 -38 -43.5 -75t-36.5 -79q-4 -4 -10 -8.5t-12 -3.5q-14 -1 -29.5 -1t-26.5 -1q-27 37 -52.5 75t-52.5 75q-26 37 -69 97.5t-90 123.5q-3 -136 -5 -264t5 -259q0 -10 -6 -12q-22 2 -42.5 8.5t-36.5 22.5q2 8 7 14.5t5 15.5q-1 157 0 311t7 310
q2 4 3 7t5 4q21 -7 43 -13t42 -18q8 -10 -1 -17.5t-9 -16.5q69 -89 140 -184.5t138 -185.5q58 107 123 210t118 211q20 1 44 2t41 2z" />
    <glyph glyph-name="N" unicode="N" horiz-adv-x="624" 
d="M590 449q-1 -65 -2 -126t-3 -127t-5 -146q-16 -4 -37 -7.5t-41 -7.5q-19 26 -48 67.5t-62 88t-63 89.5t-50 72q-38 55 -77.5 111t-74.5 107q-3 -7 -2 -15.5t-1 -16.5q-7 -113 -6.5 -226.5t1.5 -227.5q0 -11 1.5 -25t-7.5 -22q-22 4 -43 9t-40 17q-7 5 -3 11.5t5 11.5
q5 12 8.5 24t1.5 25q0 29 -0.5 68t-0.5 81t-0.5 80t-0.5 65q-1 74 3 153.5t11 156.5q26 -7 51 -16t48 -23q6 -7 1.5 -12.5t-9.5 -10.5t0 -12q87 -121 179 -250.5t179 -254.5q7 73 8.5 139t0.5 133t-4 142q-5 27 -6.5 56.5t-11.5 54.5q17 10 34 21.5t28 28.5q6 -1 16.5 -2.5
t19.5 -3.5q-4 -68 -0.5 -138.5t2.5 -141.5z" />
    <glyph glyph-name="O" unicode="O" horiz-adv-x="706" 
d="M693 389q2 -59 -12.5 -117t-47.5 -106t-89 -79q-42 -22 -92.5 -33.5t-104 -10t-103 16.5t-88.5 46q-78 62 -107 152t-9 184q12 55 45 104t78.5 87t96.5 60q21 9 42.5 18.5t43.5 14.5q8 -13 20 -32t19 -30q5 12 7.5 24.5t9.5 23.5q42 -13 81.5 -32t75.5 -45
q62 -45 97 -107.5t37 -138.5zM606 453q-12 40 -41.5 74t-68 57t-79.5 30q-9 2 -20 -0.5t-20 2.5q-3 5 -1.5 12.5t3.5 12.5q-9 2 -21 -1t-21 -5q-65 -18 -122.5 -62t-85.5 -109q-16 -37 -18.5 -80t7 -84.5t29.5 -74.5q35 -58 91.5 -81.5t118.5 -25.5q72 -3 137 27.5t98 96.5
q24 49 27.5 104t-13.5 107z" />
    <glyph glyph-name="P" unicode="P" horiz-adv-x="582" 
d="M537 626q19 -33 22.5 -73.5t-6.5 -79.5t-34 -68q-32 -39 -76.5 -56t-94.5 -19t-100 3q-33 3 -64 12.5t-62 17.5q-4 -73 -6 -144.5t2 -142.5q1 -8 4 -15t-2 -15q-8 -6 -20 -4t-23 3q-13 5 -28 7.5t-23 16.5q-4 10 2 17.5t7 16.5q2 8 4 20.5t3 20.5q1 32 2.5 76.5l3 89
t2.5 75.5q2 62 6.5 123t12.5 120q-5 14 -16.5 26.5t-19.5 25.5q-3 10 2 12.5t12.5 3t11.5 3.5q59 14 126 24.5t134.5 8.5t126.5 -26q28 -11 52.5 -32.5t38.5 -47.5zM473 590q-7 12 -16.5 24.5t-22.5 18.5q-41 20 -89.5 24t-97.5 -2.5t-91 -20.5q-10 -46 -17.5 -94.5
t-10.5 -96.5q34 -15 69 -26t72 -14q47 -4 93 2t83 32q32 29 37 72t-9 81z" />
    <glyph glyph-name="Q" unicode="Q" horiz-adv-x="768" 
d="M769 60q-41 -25 -93.5 -25t-100.5 7q-7 12 -10.5 25.5t-14.5 21.5q-43 -23 -94 -35t-104.5 -11.5t-103 15.5t-88.5 47q-79 63 -107.5 150.5t-7.5 184.5q11 53 41 101t72.5 86.5t92 66t100.5 39.5q7 -8 16 -23t17.5 -29t11.5 -19q5 12 12 24.5t13 24.5q20 -3 38.5 -11.5
t36.5 -16.5q53 -25 96 -67t69.5 -95t28.5 -112q2 -76 -15.5 -145.5t-67.5 -125.5q20 -17 46 -22.5t51.5 -11.5t45.5 -26q5 -4 11.5 -8t7.5 -10zM600 475q-15 39 -46 73t-70.5 55t-83.5 21l-10 7q-4 5 -1 9t2 8q-10 -1 -21 -2t-19 -5q-62 -9 -117.5 -50t-87.5 -103
q-20 -38 -28.5 -80.5t1.5 -99.5q8 -46 37 -90t74 -69q56 -31 126 -31.5t131 22.5q-10 8 -26.5 21.5t-26.5 21.5q-4 2 -8.5 1t-8.5 -3q-6 -1 -12.5 0t-9.5 8l-4 36t-1 36q6 5 10.5 11t8.5 13q19 -6 25.5 -23t19.5 -30q20 -16 42 -30t44 -24q17 17 29 36t21 39q17 51 24 110.5
t-14 111.5z" />
    <glyph glyph-name="R" unicode="R" horiz-adv-x="606" 
d="M592 44q-4 -4 -12.5 -3t-12.5 0q-44 -4 -84 -3t-82 12h-10.5h-10.5q8 39 -6 72t-36 63.5t-39 61.5q-19 28 -37.5 54.5t-40.5 51.5q-28 2 -55.5 6.5t-54.5 10.5q-6 -76 -5 -162t3 -166q-21 -1 -41.5 2.5t-39.5 9.5q-4 3 -7 8q14 36 15.5 75.5t-0.5 80t-1 79.5
q2 81 5.5 160t8.5 159q-8 19 -17 37t-14 38q1 5 6 5.5t9 2.5q63 13 132 25.5t139 12t132 -25.5q26 -10 46.5 -33t33.5 -46q17 -28 21.5 -64t-2.5 -71t-25 -62q-24 -35 -58 -53t-73.5 -24t-81.5 -7q32 -37 55 -68t43.5 -60.5t43.5 -60.5q21 -22 46.5 -35t47.5 -32
q15 -13 30.5 -25t28.5 -26zM445 488q14 25 14 55.5t-14 55.5q-11 27 -35 38.5t-49 17.5q-58 2 -116 -3.5t-111 -22.5q-6 -42 -10 -90t-8 -95q26 -7 53.5 -11.5t55.5 -7.5q40 0 82.5 -0.5t79.5 12.5t58 51z" />
    <glyph glyph-name="S" unicode="S" horiz-adv-x="596" 
d="M573 192q-4 -42 -33.5 -76.5t-67.5 -48.5q-46 -18 -102 -25t-111.5 -1.5t-103.5 22.5q-41 20 -77 54t-58 74q13 14 28 24t23 26q3 5 5 10t3 10q5 1 9.5 1h8.5q5 -28 19 -57t37 -50.5t52 -30.5q42 -11 90 -14t94 7t81 36q17 18 24.5 41.5t0.5 47.5q-7 28 -27.5 46t-46 30
t-49.5 20q-43 16 -88 28t-88.5 28t-81.5 44q-34 25 -46.5 61.5t-7.5 78.5q8 34 24.5 63.5t48.5 51.5q45 30 104.5 39t119.5 -1t105 -38q15 -9 32.5 -26t33 -38.5t23.5 -42.5q-17 -13 -36 -28t-39 -25q-7 8 -7.5 19t-5.5 20q-10 41 -45.5 63.5t-73.5 27.5q-35 5 -72 2.5
t-69 -18t-53 -49.5q-9 -14 -11 -33.5t5 -36.5q11 -25 36.5 -38.5t49.5 -24.5q45 -19 93.5 -31t95.5 -28t87 -47q39 -30 55.5 -73.5t11.5 -93.5z" />
    <glyph glyph-name="T" unicode="T" horiz-adv-x="628" 
d="M617 659q-6 -7 -3 -18.5t-7 -13.5q-55 10 -115 9t-115 -11q-4 -1 -7 -4t-7 -6q-8 -103 -11 -194t-2 -181.5t5 -195.5q0 -4 -3 -5.5t-5 -0.5q-23 4 -42 12t-40 15q-7 8 -5 16t7 16t4 17q2 10 2.5 20t1.5 18q-2 140 1 242.5t6 185.5q-1 10 1 20.5t-12 14.5
q-58 -3 -113.5 -14t-106.5 -34q-10 25 -18.5 51.5t-21.5 48.5q-1 5 7 5q132 2 254.5 17t244.5 37q11 2 20 6t19 5q7 -6 18 -21t22.5 -31.5t20.5 -25.5z" />
    <glyph glyph-name="U" unicode="U" horiz-adv-x="624" 
d="M589 408q-1 -43 -0.5 -88t-5 -87.5t-24.5 -80t-59 -65.5q-41 -28 -93.5 -38t-107 -7.5t-104.5 11.5q-33 7 -64 28.5t-54 52.5t-32 63q-8 31 -9 66t-1 69q0 25 0.5 61.5t0.5 73v60.5q1 56 6 107t15 106q22 -7 42 -18t41 -21q2 -3 -1 -9q-15 -28 -17 -58.5t-6 -64.5
q-8 -73 -7.5 -141t1.5 -139q1 -39 11.5 -76.5t44.5 -63.5q39 -30 89 -35t100 -1q41 3 78.5 23.5t55.5 60.5q20 44 20.5 99t1.5 107v74.5t0.5 81.5t-0.5 66q-3 15 -12 27t-19 23q20 12 40 28.5t37 33.5q14 -8 31 -13q2 -76 2.5 -157.5t-1.5 -158.5z" />
    <glyph glyph-name="V" unicode="V" horiz-adv-x="687" 
d="M673 721q-46 -89 -84 -181t-78 -184q-31 -70 -59 -140.5t-57 -140.5q-3 -7 -2.5 -17.5t-10.5 -12.5q-16 -2 -39 -4t-35 -4q-85 173 -154.5 347.5t-136.5 352.5q10 0 28.5 -3t39.5 -7.5t37 -8t22 -5.5q-7 -32 -2 -67t16 -64q44 -112 88 -223t91 -221q1 -2 3 -2t2 3
q44 99 85.5 201.5t81.5 205.5q14 37 28.5 75.5t4.5 83.5q29 4 53 13.5t49 20.5q6 -3 15 -8.5t14 -9.5z" />
    <glyph glyph-name="W" unicode="W" horiz-adv-x="879" 
d="M864 706q-20 -44 -37 -89t-29 -92q-5 -19 -12 -46.5t-15 -57t-15 -55t-11 -40.5q-16 -58 -34 -116.5t-34 -117.5q-1 -8 -1.5 -17.5t-2.5 -20.5q-8 -4 -26 -7.5t-36.5 -6t-28.5 -2.5q-34 125 -71.5 248t-82.5 242q-11 -38 -27.5 -94t-35 -118t-35.5 -120t-30 -100
q-6 -11 -7.5 -25t-12.5 -22q-18 -2 -35.5 -5t-35.5 -5q-13 49 -31 113t-38.5 134.5t-40.5 140.5t-38 132.5t-32 108.5q-4 16 -9 32.5t-8 32.5q29 -1 57 -10t54 -19q3 -3 1 -9q-6 -27 -1 -50.5t12 -48.5q28 -106 55 -207.5t60 -205.5q15 43 32.5 102t35 123t33 126t28 112.5
t19.5 81.5q7 1 22.5 1t31 -1t22.5 -4q9 -82 28 -158.5t43 -153.5q4 -13 12 -38.5t17 -55t17.5 -57t14.5 -45.5q6 -10 7.5 -22t7.5 -22q36 109 65 217.5t51 222.5q2 21 4 40t-3 40q24 10 47.5 20.5t44.5 25.5q8 -7 18.5 -17t15.5 -15z" />
    <glyph glyph-name="X" unicode="X" horiz-adv-x="675" 
d="M653 58q0 -4 -4 -5.5t-7 -3.5q-44 -6 -91 -6.5t-93 2.5q-7 3 -10.5 3t-7.5 8q5 79 -29.5 143t-84.5 121q-4 2 -9.5 4t-10.5 0q-7 -6 -18 -18t-19 -20q-27 -37 -60 -77.5t-64 -81.5t-52 -82q-4 -10 -12 -7.5t-14 5.5q-13 9 -30.5 22.5t-13.5 32.5q5 9 15 11t16 9
q43 52 87 105.5t82 108.5q10 20 23.5 39.5t17.5 42.5q-27 48 -62 93t-70 89q-11 14 -24.5 23t-31.5 6q-10 14 -5.5 31t5.5 33q5 16 20.5 27.5t31.5 14.5q13 0 15.5 -8.5t3 -19t5.5 -18.5q32 -52 64 -104.5t72 -101.5q6 -7 13.5 -10.5t16.5 -0.5q20 17 34.5 37.5t30.5 39.5
q15 23 36 56t43 67t37 58q3 4 8 8t9 -2q17 -19 38.5 -32t34.5 -34q-1 -6 -6.5 -10t-10.5 -6l-29 -20q-49 -52 -90 -108l-82 -112q-9 -13 -2.5 -24t10.5 -22q36 -55 75.5 -110t85.5 -105q32 -22 58.5 -42t54.5 -49z" />
    <glyph glyph-name="Y" unicode="Y" horiz-adv-x="599" 
d="M583 666q-4 -13 -15 -15t-19 -10q-64 -72 -126 -145t-114 -150q0 -27 -0.5 -66t-1 -82t-1 -82.5t-0.5 -68.5q0 -11 -9 -14q-19 5 -39 9.5t-31 23.5q0 13 3.5 24.5t1.5 24.5v61v73t-0.5 72.5t-0.5 58.5q-52 71 -101.5 150t-99.5 154q-4 8 -7.5 13t-5.5 12q-2 5 1 8.5
t6 4.5q23 2 43.5 7t42.5 2q7 0 10 -8q-4 -27 9 -49t25 -43q33 -56 63.5 -104.5t64.5 -101.5q22 29 50.5 67.5t60.5 80t64 81t59 72.5q5 5 9 1.5t7 -5.5q13 -15 27 -27.5t24 -28.5z" />
    <glyph glyph-name="Z" unicode="Z" horiz-adv-x="617" 
d="M595 80q-120 14 -242.5 3.5t-235.5 -30.5q-31 -6 -60 -18q-12 17 -21 36.5t-17 39.5q8 9 20.5 22t21.5 22q16 20 39.5 50t47.5 60.5t40 50.5q65 81 124 165l118 168q-75 -4 -158 -14t-160 -26q-7 -1 -13 -4.5t-12 -6.5t-10 6q-8 23 -15 47.5t-14 47.5q114 -1 227.5 4.5
t219.5 33.5q8 2 11 -5q11 -13 27.5 -34.5t26.5 -35.5q1 -3 -5 -8q-28 -22 -52 -49.5t-47 -56.5q-25 -33 -61 -80t-76 -99t-76.5 -100t-63.5 -83q-11 -14 -22.5 -28t-20.5 -29q26 3 63 7t77.5 8t75.5 8t56 6q32 3 63 10.5t59 20.5q14 -18 30 -36t35 -34v-19v-20z" />
    <glyph glyph-name="bracketleft" unicode="[" horiz-adv-x="362" 
d="M299 735l42 -65l-203 -135v-506l204 -137l-43 -60l-239 159v583z" />
    <glyph glyph-name="backslash" unicode="\" horiz-adv-x="350" 
d="M174 519q6 -28 20.5 -72.5t26.5 -82.5q39 -129 85 -258q3 -10 12 -14.5t10 -15.5q-3 -19 -23.5 -26t-36.5 -11q-7 -1 -14.5 0t-9.5 11q-5 46 -20.5 95.5t-32.5 98.5t-30 93q-4 11 -9 32t-9 29q-18 66 -40 127.5t-50 127.5l-20 28q-4 5 -8 10.5t-3 11.5q20 15 44.5 20.5
t46.5 16.5q6 4 9 -1.5t5 -9.5q7 -28 15.5 -67.5t17 -78t14.5 -64.5z" />
    <glyph glyph-name="bracketright" unicode="]" horiz-adv-x="362" 
d="M64 735l239 -161v-583l-239 -159l-43 60l204 137v506l-203 135z" />
    <glyph glyph-name="asciicircum" unicode="^" horiz-adv-x="620" 
d="M470 403q-13 -7 -29.5 -2.5t-25.5 21.5l-104 202l-105 -204q-9 -18 -24 -21t-28 4q-13 8 -19 21.5t2 29.5l125 249q20 40 50 40q29 0 48 -38l129 -256q5 -16 -1 -28t-18 -18z" />
    <glyph glyph-name="underscore" unicode="_" 
d="M0 -166v76h550v-76h-550z" />
    <glyph glyph-name="grave" unicode="`" horiz-adv-x="333" 
d="M257 618q-2 -4 -4 -6q-2 -4 -7 -5.5t-8 -0.5l-182 77q-6 3 -9.5 8t-2.5 18q2 17 9 30.5t19 18.5q11 5 20.5 2.5t19.5 -10.5l144 -105q9 -8 4 -21q-1 -4 -3 -6z" />
    <glyph glyph-name="a" unicode="a" horiz-adv-x="483" 
d="M465 74q-15 -11 -31 -22t-33 -19q-7 -3 -9 5q-5 10 -10 18.5t-8 19.5q-34 -13 -71 -23.5t-76 -14.5q-54 -4 -103 9t-81 59q-17 26 -20.5 62t11.5 64q23 45 62 69t86.5 33.5t95.5 8.5h40.5t39.5 -4q1 27 -12 51.5t-39 36.5q-30 14 -69 13.5t-69 -17.5q-25 -14 -40.5 -38.5
t-23.5 -50.5q-19 8 -38.5 12t-35.5 17q7 34 29.5 63t53.5 49t63 26q36 7 75.5 7t76 -12.5t62.5 -43.5q5 -5 10.5 -14t9.5 -15q12 -28 13 -59.5t-0.5 -62.5t1.5 -61q4 -36 7.5 -73.5t19.5 -69.5q3 -6 11.5 -10t1.5 -13zM356 155q-3 29 -2 60t-1 61q-33 4 -66.5 4t-65.5 -5
q-34 -6 -70 -21.5t-50 -50.5q-8 -20 -1 -40.5t23 -34.5q36 -21 78 -21.5t83 13.5t72 35z" />
    <glyph glyph-name="b" unicode="b" horiz-adv-x="498" 
d="M475 265q-1 -60 -28.5 -112.5t-81.5 -84.5q-37 -22 -83.5 -25.5t-91 8.5t-78.5 38v-25v-31q-8 -5 -17 -2t-18 3q-13 5 -25.5 9.5t-23.5 16.5q1 9 6 15.5t10 13.5q-1 33 -2 75t-1.5 81t-1.5 64q-1 110 4.5 210.5t12.5 206.5q0 11 8 7q23 -8 42 -17.5t40 -21.5
q-24 -58 -26.5 -124.5t-6.5 -132.5q33 28 75.5 44.5t88.5 17t86 -19.5q60 -28 87 -87.5t25 -126.5zM381 183q23 43 22 96.5t-26 94.5q-12 21 -33.5 35t-44.5 17q-57 8 -105 -16t-83 -68q0 -18 -0.5 -47.5t-0.5 -61v-55.5q29 -31 67.5 -48.5t81.5 -18.5q38 0 71 19t51 53z
" />
    <glyph glyph-name="c" unicode="c" horiz-adv-x="450" 
d="M429 147q-37 -59 -99 -88t-133 -16q-51 10 -97.5 43.5t-63.5 85.5q-14 46 -14.5 94t15 93t48.5 80q44 47 108 61t125 -6q28 -9 52 -31t39 -49q7 -12 13.5 -24.5t6.5 -26.5q-16 -10 -32.5 -18t-30.5 -23q-7 -4 -16 3q-4 6 -4 15t-2 16q-7 22 -23 44.5t-41 29.5
q-36 7 -73.5 1t-63.5 -35q-36 -38 -43 -92.5t7 -104.5q9 -33 40 -56t62 -29q38 -7 70.5 6.5t57.5 41.5q14 14 22 30t14 33q4 5 10 4t10 -3q7 -7 5.5 -19t0.5 -23t13 -19.5t17 -17.5z" />
    <glyph glyph-name="d" unicode="d" horiz-adv-x="500" 
d="M481 95q4 -4 0.5 -7.5t-5.5 -6.5q-14 -13 -28.5 -25.5t-31.5 -22.5q-4 -2 -7.5 1t-5.5 4q-8 15 -12 31.5t-6 33.5q-42 -40 -96 -55t-112 -3q-37 8 -68 33t-51 59.5t-25 70.5q-6 50 0 99.5t28.5 92t65.5 72.5q36 26 82.5 30.5t93 -6.5t80.5 -35q-1 32 -2.5 82t-5 103
t-12.5 93q59 -15 111 -45q0 -10 -4.5 -19t-6.5 -19q-1 -8 -2.5 -24t-3.5 -24q-1 -41 -2 -90.5t-2.5 -96.5t-2.5 -84q-1 -52 1 -106.5t6 -105.5q1 -11 7.5 -18.5t16.5 -11.5zM380 208q0 39 0.5 80.5t-1.5 81.5q-22 18 -47 33t-54 21q-35 8 -71 -1t-59 -39q-22 -27 -31.5 -64
t-7 -75t18.5 -70q12 -25 37.5 -40t51.5 -20q35 -5 65.5 7t55.5 35.5t42 50.5z" />
    <glyph glyph-name="e" unicode="e" horiz-adv-x="476" 
d="M459 127q2 -1 2.5 -5t-3.5 -6q-28 -28 -60 -45t-70 -27q-48 -12 -98.5 -9t-94.5 25t-75 66q-25 37 -31.5 83.5t2.5 93.5t29 84q34 61 96.5 94t135.5 20q39 -7 74 -32t53 -63q16 -34 24 -69.5t9 -75.5q2 -5 -2.5 -7t-7.5 -2q-71 -4 -143 -5.5t-140 -17.5q-17 6 -30 20
t-28 25q-1 -39 10.5 -75t45.5 -61q28 -20 64 -26t73 1t65 25q21 13 36.5 32t28.5 38q5 -1 10.5 -3t9.5 -7q-2 -19 -1 -38t16 -33zM360 320q-3 14 -6 27.5t-11 24.5q-17 32 -49.5 47t-68.5 8q-28 -5 -53.5 -23.5t-42.5 -44.5t-22 -55q37 3 92.5 7t104.5 8q14 2 30.5 1.5
t25.5 -0.5z" />
    <glyph glyph-name="f" unicode="f" horiz-adv-x="413" 
d="M402 663q-7 -10 -22.5 -32t-26.5 -36q-12 16 -26.5 32.5t-32.5 26.5t-41 6q-24 -4 -35.5 -21t-16 -38.5t-8.5 -41.5q-1 -9 -2 -25t-2 -27q11 -1 24 4q20 5 43.5 10.5t42.5 11.5q10 -14 23 -26t27 -23q2 -7 0 -13t-1 -13q-40 -1 -81 -5t-80 -12q0 -11 -1 -30.5t-1 -32.5
v-69t0.5 -85.5t0.5 -73.5q0 -12 1 -31.5t2 -40.5t2 -36q-24 -3 -47.5 3.5t-37.5 25.5q-1 16 7 29t9 29q-1 15 -0.5 39t0.5 38q0 18 -0.5 47t-1.5 60.5t-1.5 61t-1.5 49.5q-16 -3 -32 -10t-31 -15q-13 18 -22 39t-14 43q26 0 51 2t48 8q3 42 6 85t19 80.5t57 59.5
q35 20 80 16.5t77 -26.5q13 -8 25 -19t21 -24z" />
    <glyph glyph-name="g" unicode="g" horiz-adv-x="476" 
d="M454 476q5 -10 0.5 -18t-10.5 -15.5t-7 -17.5t-2.5 -29t-1.5 -30q0 -47 -0.5 -109.5t-0.5 -124.5v-110q0 -52 -29 -98t-79 -69q-46 -21 -104 -21.5t-105 16.5q-28 10 -53 30.5t-44 46.5q3 8 10.5 15t11.5 15q7 11 12 23t5 26q4 1 9.5 3.5t9.5 3.5q9 -34 35 -64.5
t60 -40.5q41 -16 87.5 -4.5t75.5 45.5q17 20 22 45t4.5 52.5t-1.5 53.5q-30 -27 -68 -44.5t-79.5 -19.5t-80.5 15q-50 22 -74.5 63t-30.5 91.5t-2 100.5q4 40 23 80.5t51 71t75 40.5q50 12 98.5 3t87.5 -39q2 11 0 24.5t6 22.5q47 -11 89 -33zM359 204q0 22 -0.5 52t-1 59.5
t-0.5 47.5q-10 12 -16 24q-30 26 -66 39.5t-77 4.5q-32 -7 -52 -30t-31 -52.5t-15 -58.5q0 -27 -0.5 -56t7 -55t30.5 -45q24 -20 58.5 -25t62.5 7q29 13 60 34.5t41 53.5z" />
    <glyph glyph-name="h" unicode="h" horiz-adv-x="488" 
d="M452 329q-1 -72 -5 -144t-7 -144q-7 -7 -16.5 -4t-17.5 4l-24 10t-23 15q0 7 4 12t6 12t4.5 20t3.5 22q1 65 6.5 130.5t-8.5 128.5q-7 20 -25.5 31t-38.5 12q-59 3 -107 -24t-92 -59q0 -32 -0.5 -79.5l-1 -95t-0.5 -79.5q0 -13 3 -28t0 -28q-4 -4 -11 -2.5t-12 1.5
q-15 6 -32.5 9t-28.5 17q0 12 6.5 22t9.5 20q3 103 -3.5 199.5t0.5 199.5q4 59 7.5 116t12.5 113q10 -1 28.5 -8.5t37 -15.5t26.5 -12q-1 -14 -9.5 -26t-10.5 -26q-6 -16 -10.5 -44t-6.5 -58q-2 -29 -3 -59.5t-2 -55.5q30 19 66 36t74 26.5t76 6.5t72 -26q35 -23 44 -63
t8 -82z" />
    <glyph glyph-name="i" unicode="i" horiz-adv-x="230" 
d="M187 635q-1 -10 -3.5 -19t-11.5 -14q-22 -1 -46 0.5t-44 10.5q-12 15 -24 32t-5 37q11 14 22.5 28t24.5 26q8 2 18 2.5t13 -9.5q1 -29 18.5 -51.5t37.5 -42.5zM176 463q-16 -23 -20.5 -52t-4 -59t-0.5 -60q-2 -57 -0.5 -121t4.5 -123q0 -9 -8 -11q-23 4 -42 11.5
t-37 18.5q-6 6 -3 15q15 13 16.5 30.5t-1 36.5t0.5 36q0 78 -1 156.5t5 160.5q2 6 7.5 5.5t9.5 -2.5l30 -14t29 -15q3 -3 7.5 -6t7.5 -7z" />
    <glyph glyph-name="j" unicode="j" horiz-adv-x="317" 
d="M259 699q-2 -24 -6.5 -46.5t4.5 -45.5q0 -8 -7.5 -14t-14.5 -9q-16 5 -29 14.5t-26 20.5q-10 13 -14 28t-9 29q9 15 20 32t28 24q16 -2 31.5 -10.5t22.5 -22.5zM276 475q-1 -10 -7.5 -16.5t-9.5 -14.5q-7 -19 -9 -41t-1 -41q0 -22 0.5 -55t0.5 -70.5t-0.5 -71.5t-0.5 -58
q0 -21 -1 -55.5t-1.5 -69.5t-1.5 -59q-6 -28 -24 -52.5t-48 -33.5q-39 -13 -75 1q-26 5 -49 23.5t-43 39.5q2 4 6 8.5t6 8.5q7 14 12 29t0 31q4 2 10.5 3.5t10.5 2.5q7 -27 27 -51t48 -31q21 -3 34 8.5t17 27.5q2 70 2.5 146t-1.5 143q0 26 -1 65l-2 78t-1 65q0 11 -1 32.5
t-1 28.5q-1 5 2 6.5t7 -1.5q21 -8 46 -13.5t49 -12.5z" />
    <glyph glyph-name="k" unicode="k" horiz-adv-x="478" 
d="M459 51q0 -5 -5 -5t-8 -2q-36 -7 -74.5 -6t-76.5 1q-6 -1 -8 2.5t0 7.5q5 25 -5 44t-25 36t-27 34q-16 19 -33 38.5t-37 33.5q-17 7 -30 -5t-27 -17q0 -16 1.5 -41t2.5 -52t2.5 -48t1.5 -29q4 -11 -9 -9q-18 5 -36 9.5t-35 13.5q-10 6 -7 11.5t9 11t5 11.5q2 9 2.5 18.5
t0.5 17.5q0 29 -1 67t-1.5 78t-1.5 76t-1 60q-1 80 3.5 162t9.5 159q-1 5 2.5 7t8.5 0q20 -6 38.5 -13.5t37.5 -15.5q9 -3 3 -13q-24 -43 -30.5 -96t-6 -107.5t-2.5 -103.5q-1 -20 0 -53.5t1 -56.5q66 44 128.5 103.5t111.5 124.5q17 -13 34 -30t34 -33q1 -10 -7 -14
t-17.5 -6.5t-15.5 -9.5q-42 -28 -81 -63.5t-80 -64.5q-4 -5 0 -9.5t5 -9.5q26 -27 52.5 -58t56.5 -57.5t64 -42.5l38 -26t35 -30z" />
    <glyph glyph-name="l" unicode="l" horiz-adv-x="230" 
d="M176 707q-19 -38 -25 -82t-5.5 -90t0.5 -91v-58v-71.5t0.5 -72t0.5 -59.5q0 -34 2 -72.5t10 -72.5q-22 0 -44 7t-43 16q-8 10 -1 20t9 20q1 14 1.5 30.5t0.5 24.5q0 42 -0.5 91.5t-1 96t-1.5 78.5q0 25 -0.5 63.5t0 80t0 75t-0.5 48.5q-1 11 -2 26.5t-3 24.5
q26 -6 52 -15.5t51 -17.5z" />
    <glyph glyph-name="m" unicode="m" horiz-adv-x="739" 
d="M705 331q2 -69 2 -144.5t-4 -144.5q-1 -4 -6 -4t-9 -2q-17 3 -34 7t-32 13q-5 8 -0.5 15t7.5 14q7 69 7 134t-2 136q-3 24 -15 47.5t-37 30.5q-42 4 -77.5 -14t-66.5 -45q-9 -8 -18.5 -17.5t-17.5 -20.5q0 -26 -0.5 -65t0 -78.5t0.5 -69.5q0 -18 1 -37.5t0 -36.5
q0 -12 -8 -10l-38 8t-37 10q-6 3 -3 8.5t4 9.5q8 23 9 47.5t1 49.5q0 56 1.5 107.5t-6.5 107.5q-2 15 -14.5 30t-29.5 18q-31 2 -58.5 -11.5t-53.5 -30.5q-35 -22 -65 -55q-3 -75 0 -147.5t10 -145.5q0 -2 -2.5 -4t-4.5 -4q-21 0 -40 4.5t-37 10.5q-5 2 -5.5 8t0.5 10
q8 8 10 20t1 24q-4 81 -4.5 158t6.5 156q1 11 -5 19.5t-11 16.5q18 15 39.5 21t40.5 14q11 3 16 -7q0 -13 -3.5 -32.5t-3.5 -30.5q32 23 68 43.5t75.5 26.5t79.5 -14q18 -9 33 -26t22 -37q33 29 72 50t82 26.5t86 -12.5q14 -6 25.5 -16.5t20.5 -22.5q18 -24 23 -54t6 -62z
" />
    <glyph glyph-name="n" unicode="n" horiz-adv-x="464" 
d="M429 321q0 -27 -1 -65t-2 -75t-2 -61q-3 -19 -0.5 -38.5t3.5 -38.5q-9 -6 -19.5 -3.5t-19.5 3.5q-13 5 -27.5 8.5t-25.5 13.5q2 11 8.5 20t8.5 19q3 65 5 130t-1 132q-3 18 -13 34.5t-27 25.5q-29 12 -60 4.5t-57 -20.5q-22 -10 -42.5 -27.5t-37.5 -37.5
q-3 -61 -4 -126.5t2 -128.5q2 -8 5 -22t5 -25q-3 -7 -9 -7q-22 5 -42.5 11.5t-38.5 18.5q-5 8 1 16t7 15q2 12 2 30.5v31.5q0 46 -1 99t-1.5 103t-1.5 85q1 8 -2.5 20t8.5 15q17 7 36 11.5t37 11.5q11 2 16 -5q1 -16 -5.5 -31t-5.5 -32q30 23 65.5 41.5t74.5 24t79 -11.5
q31 -13 54 -41.5t25 -61.5q1 -11 2.5 -31t1.5 -35z" />
    <glyph glyph-name="o" unicode="o" horiz-adv-x="505" 
d="M479 338q13 -47 9 -95.5t-24.5 -92t-60.5 -75.5q-36 -28 -82.5 -37.5t-93.5 -2.5t-85 28q-62 36 -90.5 100t-20.5 135q5 42 25 81.5t52.5 70t73.5 43.5q15 5 31.5 8.5t32.5 3.5q7 -7 10 -23q3 -9 6.5 -18t7.5 -17q6 11 11.5 23t14.5 20q39 -9 76.5 -29t66.5 -51t40 -72z
M411 288q-3 30 -21.5 55t-45 42t-54.5 24q-7 3 -16 0.5t-16 4.5q-1 2 0 5l2 6q-15 0 -28.5 -3.5t-27.5 -5.5q-32 -9 -57.5 -35.5t-35.5 -58.5q-16 -54 0.5 -105t59.5 -85q22 -16 51 -23.5t59.5 -5t54.5 15.5q46 26 63.5 72t11.5 97z" />
    <glyph glyph-name="p" unicode="p" horiz-adv-x="495" 
d="M472 245q-1 -60 -35 -114.5t-92 -77.5q-60 -16 -125 -10t-115 40q1 -60 -1 -121t8 -120q0 -8 -5 -11q-22 2 -43 6.5t-37 20.5q-4 6 1 9.5t7 7.5q1 8 2.5 22.5t0.5 21.5v76.5v90.5t-0.5 90t-0.5 73q0 59 5.5 116.5t-5.5 114.5q17 8 35 12.5t35 9.5q7 0 13.5 -0.5t9.5 -7.5
q1 -12 -3 -22t-5 -21q32 26 73.5 39t85 11.5t81.5 -20.5q46 -22 70 -60t32.5 -83.5t7.5 -92.5zM377 373q-4 7 -9.5 13.5t-7.5 9.5q-24 31 -63.5 37t-77.5 -3q-31 -8 -61 -26.5t-49 -47.5q0 -46 -3 -95t3 -96q23 -32 61.5 -41.5t75.5 -16.5q38 0 73.5 10.5t55.5 47.5
q21 29 26 66t-2 75t-22 67z" />
    <glyph glyph-name="q" unicode="q" horiz-adv-x="500" 
d="M474 482q8 -12 -1.5 -21t-10.5 -20q-9 -58 -7.5 -120.5t1.5 -130.5q0 -64 1.5 -136t-0.5 -146q0 -17 3 -33.5t4 -33.5q-10 -7 -21.5 -4.5t-22.5 3.5q-10 3 -23.5 7t-22.5 5q-2 9 4 17t7 17l4 29q-1 46 -0.5 94t-2.5 90q-43 -43 -104.5 -57t-119.5 7q-43 16 -74.5 49.5
t-47.5 77t-16 88.5q2 72 37.5 136t102.5 94q35 16 74 16t76 -12.5t67 -32.5q2 11 2.5 20.5t1.5 19.5q23 0 45.5 -7.5t43.5 -15.5zM384 189q-1 47 0 95.5t-3 94.5q-19 16 -37 28.5t-39 19.5q-34 13 -75 11t-68 -28q-45 -42 -53.5 -101.5t6.5 -115.5q8 -32 37.5 -55t60.5 -29
q54 -10 98.5 14.5t72.5 65.5z" />
    <glyph glyph-name="r" unicode="r" horiz-adv-x="357" 
d="M347 414q-1 -4 -4.5 -8t-6.5 -8q-20 12 -40.5 23t-46.5 6q-41 -9 -75.5 -37t-63.5 -62q-1 -74 0.5 -142t4.5 -143q-23 0 -44.5 5.5t-42.5 13.5q-7 8 -0.5 13.5t7.5 11.5q1 5 2 12.5t2 10.5q-4 91 -2.5 175.5t1.5 172.5q-1 6 -3 11.5t-2 12.5q19 10 40.5 15.5t43.5 5.5
q5 -3 6.5 -9t-0.5 -11l-7 -65q39 36 84 61t97 31q23 -50 50 -96z" />
    <glyph glyph-name="s" unicode="s" horiz-adv-x="457" 
d="M428 127q-15 -43 -55.5 -65.5t-82.5 -26.5q-77 -6 -147 12.5t-123 76.5q0 7 5 10t8 9q7 12 12 26t3 29q4 2 8 4.5t8 2.5q37 -58 97 -89.5t130 -18.5q20 4 39.5 14t25.5 32q4 14 0.5 28.5t-16.5 23.5q-30 21 -63.5 32t-69 19t-69 19.5t-63.5 33.5q-22 16 -28 41t-4 50
q2 34 29.5 61t57.5 37q64 20 129.5 12.5t117.5 -48.5q8 -6 22 -20.5t21 -29.5q-13 -12 -30.5 -29t-28.5 -27q-15 23 -32 45.5t-44 35.5q-34 16 -77.5 12.5t-72.5 -26.5q-25 -18 -18 -47q8 -18 22 -26t31 -12t31 -11q34 -10 69.5 -19.5t68.5 -23.5t61 -40q22 -19 30.5 -48
t-2.5 -59z" />
    <glyph glyph-name="t" unicode="t" horiz-adv-x="387" 
d="M375 65q-28 -12 -59 -15.5t-63 -5.5t-61.5 7t-47.5 37q-19 23 -19.5 52t-3.5 56v68.5t-0.5 81t-0.5 66.5q-17 -1 -33 -7.5t-32 -12.5q-9 20 -17.5 38.5t-15.5 40.5q-3 8 5 8q21 -2 46 -1t48 4q1 33 2 80.5t2.5 96t1.5 80.5q24 -10 49.5 -17t49.5 -19q3 -5 -1 -9
q-15 -29 -19.5 -62.5t-5 -68t-4.5 -69.5q47 7 92 29q7 3 10 -2q22 -35 54 -64q-1 -8 -0.5 -15t-4.5 -12q-38 6 -77.5 4t-76.5 -7q-2 -67 -4 -136t0 -135q1 -10 3.5 -18.5t9.5 -16.5q18 -12 40.5 -7t40.5 12q7 4 14.5 7.5t14.5 7.5q14 -15 30 -28.5t33 -24.5q1 -11 0 -23z
" />
    <glyph glyph-name="u" unicode="u" horiz-adv-x="468" 
d="M446 474q1 -9 -4 -17.5t-8 -16.5q-17 -55 -20.5 -119t-0.5 -124q4 -26 8.5 -52.5t23.5 -46.5q-2 -12 -12 -21t-19 -17q-7 -7 -14.5 -12.5t-15.5 -7.5q-7 2 -9.5 8t-5.5 11q-3 11 -8 29.5t-7 28.5q-34 -41 -81 -63t-103 -15q-40 6 -72 34t-47 65q-16 40 -17 86.5t-2 91.5
q-1 48 4.5 96t3.5 95q23 -7 44 -16.5t43 -17.5q9 -10 0.5 -20.5t-9.5 -21.5q-13 -61 -17 -122.5t6 -125.5q5 -31 27.5 -51t42.5 -24q44 -9 83.5 12.5t66.5 58.5q6 8 12 20t10 19q-1 71 -0.5 144t8.5 143q17 -7 45 -16.5t44 -14.5z" />
    <glyph glyph-name="v" unicode="v" horiz-adv-x="502" 
d="M489 485q-61 -104 -110.5 -213t-95.5 -220q-3 -2 -6.5 -5t-5.5 -5q-17 -2 -35.5 -4.5t-35.5 1.5q-17 37 -29 75.5t-27 75.5q-31 78 -63.5 156t-66.5 154q13 5 26 2t26 -3q17 -4 33 -7t32 -8q-2 -47 10 -91t29.5 -86.5t31.5 -85.5q11 -20 18 -41.5t18 -42.5
q42 77 75.5 157t66.5 161q1 5 2 11t1 11q23 4 47 7t45 13q6 -4 14 -12z" />
    <glyph glyph-name="w" unicode="w" horiz-adv-x="724" 
d="M708 473q-46 -105 -84.5 -212t-76.5 -215q-17 -4 -34 -10t-37 -2q-12 9 -13 23.5t-6 27.5q-7 19 -20 52t-27.5 72.5t-29 78t-25.5 68.5q-7 -19 -17.5 -48.5t-22.5 -61.5t-21 -58t-13 -37q-6 -26 -15.5 -50.5t-14.5 -50.5q-1 -1 -3.5 -2.5t-4.5 -2.5q-19 -4 -38 -6.5
t-39 -3.5q-1 2 -3 3.5t-4 3.5q1 29 -5.5 54t-14.5 50q-28 89 -58.5 176.5t-68.5 172.5q1 4 1 8t4 4q21 -3 51 -7.5t49 -8.5q4 0 7 -4.5t2 -9.5q-1 -24 -2.5 -46.5t8.5 -44.5q17 -63 37.5 -124.5t40.5 -123.5q24 68 48.5 134.5t41.5 136.5q4 15 6 32t-4 32l76 25
q5 -1 10.5 -4.5t9.5 -7.5q2 -6 -1 -13t-5 -14q26 -82 55 -164t62 -162q26 70 54.5 138.5t41.5 143.5q1 13 1 26.5t-6 24.5l89 36q4 -4 12 -7.5t12.5 -8.5t-5.5 -13z" />
    <glyph glyph-name="x" unicode="x" horiz-adv-x="557" 
d="M544 52q-33 -2 -66.5 -8t-64.5 -1q-18 3 -32.5 3.5t-31.5 5.5q-7 1 -11 4.5t-6 6.5q-5 41 -19.5 79t-49.5 66q-4 1 -8 4t-9 2q-17 -17 -43.5 -44.5t-53 -55.5t-44.5 -47q-7 -8 -13.5 -17t-17.5 -18q-16 12 -32.5 33.5t-21.5 28.5q-2 8 4 13t11 7q21 4 37 19.5t32 29.5
q26 22 50 46.5t46 49.5q5 20 -4.5 35.5t-23 29.5t-23.5 28q-29 45 -76 65q-11 10 -16 24q4 17 11.5 32t22.5 25q3 3 7.5 2.5t8.5 -0.5q11 -7 13.5 -19.5t10.5 -21.5q15 -17 36 -41t42 -48.5t36 -41.5q3 0 7 -1.5t8 1.5q37 44 73.5 88.5t67.5 90.5q20 -13 36.5 -30t35.5 -33
q7 -4 -2 -8q-49 -27 -88 -71t-78 -86q6 -41 33 -73.5t63 -57t69 -42.5q21 -7 39.5 -22t34.5 -32z" />
    <glyph glyph-name="y" unicode="y" horiz-adv-x="539" 
d="M520 453q3 -13 -4.5 -20.5t-18 -13.5t-16.5 -16q-28 -45 -49.5 -92.5t-45.5 -94.5q-35 -69 -73 -137t-85 -133q-7 -15 -6.5 -35t0.5 -35q-30 -11 -64 -13.5t-68 -5.5q-17 -1 -32.5 0t-30.5 2q-4 -1 -5 1.5t1 4.5q21 24 46 39l50 30t45 37q20 23 35 47t29 49
q-21 45 -47 102.5t-54 117.5t-53.5 114.5t-43.5 94.5q-2 4 0.5 7t6.5 3q26 -4 53.5 -5t52.5 -7q4 -3 2 -12q-1 -8 -3.5 -18.5t-4.5 -20.5q30 -76 64 -154.5t72 -152.5q14 32 32.5 72.5t37.5 83.5t36.5 81t29.5 64q8 17 13 35.5t16 34.5q21 -12 43.5 -23t38.5 -31z" />
    <glyph glyph-name="z" unicode="z" horiz-adv-x="427" 
d="M404 67q-82 9 -160 2.5t-149 -18.5q-16 -3 -43 -14q-11 17 -18 31t-13 31q17 20 30 33q10 13 25 32l30 38t25 32q38 48 72.5 97t68.5 98q-16 -1 -43.5 -3.5t-57 -6.5t-53.5 -8t-32 -8q-4 -2 -7 -4q-7 -4 -12.5 0.5t-7.5 8.5q-5 15 -9.5 32.5t-12.5 41.5q82 -1 154.5 2.5
t139.5 21.5q4 1 8.5 0t7.5 -7l17.5 -22.5t17.5 -23.5q4 -10 -6 -17q-16 -13 -31 -30.5t-29 -35.5q-48 -62 -95.5 -124.5t-94.5 -124.5l150 16q20 2 39.5 7t41.5 15q22 -29 48 -52v-17t-1 -23z" />
    <glyph glyph-name="braceleft" unicode="{" horiz-adv-x="362" 
d="M275 694q-4 -4 -8 -8.5t-8 -9.5q-22 -19 -30 -52t-7 -75l2 -156q-4 -32 -17 -64t-37 -53q29 -22 42.5 -59t14.5 -75l3 -155q1 -28 11.5 -53t25.5 -51q1 -3 5 -7l6 -6q8 -8 11.5 -19.5t-15.5 -20.5q-14 1 -26 7t-21 13q-39 29 -56.5 67t-22 79.5t-5.5 81.5
q-1 29 -2.5 57.5t-9.5 55.5q-7 24 -23 44.5t-53 38.5q38 25 53.5 39.5t20.5 26.5q7 15 7.5 31t1.5 32q2 53 -1 107t16 105q9 24 25.5 48t38.5 43.5t47 26.5q6 2 13.5 -0.5t9.5 -13.5q2 -7 -2.5 -13.5t-9.5 -11.5z" />
    <glyph glyph-name="bar" unicode="|" horiz-adv-x="279" 
d="M102 -180l-1 925h77v-925h-76z" />
    <glyph glyph-name="braceright" unicode="}" horiz-adv-x="362" 
d="M90 694q-5 5 -9 11.5t-3 13.5q2 11 9.5 13.5t13.5 0.5q25 -7 47 -26.5t39 -43.5t25 -48q19 -51 16.5 -105t-1.5 -107q1 -16 1.5 -32t7.5 -31q5 -12 20.5 -26.5t53.5 -39.5q-37 -18 -53 -38.5t-23 -44.5q-8 -27 -9.5 -55.5t-2.5 -57.5q-1 -40 -5.5 -81.5t-21.5 -79.5
t-57 -67q-9 -7 -21 -13t-26 -7q-19 9 -15 20.5t11 19.5l6 6t5 7q15 26 25.5 51t11.5 53l3 155q1 38 14.5 75t42.5 59q-24 21 -37 53t-17 64l2 156q1 42 -7 75t-30 52q-4 5 -8 9.5t-8 8.5z" />
    <glyph glyph-name="asciitilde" unicode="~" horiz-adv-x="620" 
d="M583 364q-25 -18 -42 -26.5t-33 -11.5q-20 -4 -41.5 -4t-41.5 1q-22 2 -47 8.5t-54 18.5q-26 11 -55 19.5t-50 8.5q-25 0 -42 -5t-34 -14q-11 -6 -23.5 -13t-26.5 -18q-10 -7 -20 -11t-26 1q-10 5 -16.5 14.5t-6.5 21.5q0 18 13 30q30 30 60.5 48t76.5 22q27 2 57.5 -1
t71.5 -19q32 -13 64.5 -24t66.5 -13q41 -1 68 13q11 5 21 12t23 13q18 7 35 -5q15 -12 15 -35q0 -21 -13 -31z" />
    <glyph glyph-name="cid00719" unicode="&#x5f15;" horiz-adv-x="1000" 
d="M720 788q20 -6 37.5 -15t37.5 -11q13 -5 8 -15q-7 -11 -19 -25q-9 -52 -12.5 -103t-3.5 -107q-1 -55 -4 -108t1 -112q-4 -16 -2 -40.5t-2 -37.5q2 -59 2 -107t2 -109q0 -2 0.5 -14t-1.5 -14q-8 -9 -21 -8.5t-21 1.5q-14 8 -28.5 8.5t-23.5 14.5q11 11 17 35t4 41l-2 279
q-1 86 -2 179.5t0 181.5q0 23 -3.5 45.5t-9.5 44.5q8 -4 22.5 -3t23.5 -1zM542 702l2 -5q-7 -11 -16 -22.5t-9 -26.5q-19 -18 -27 -39t-15 -43q5 -16 5 -32t7 -28q-21 -5 -46 -7t-46 -11.5t-30 -37.5q-9 -17 -26 -34.5t-27 -34.5q24 2 55 4t62 -2t54 -21q2 -4 -2.5 -8.5
t-4.5 -8.5q-4 -14 -7.5 -29.5t-5.5 -29.5q-11 -61 -27.5 -117t-43.5 -108q-7 -15 -15 -34t-17 -31q-9 1 -20.5 5t-18.5 9q-39 10 -76.5 34t-70.5 51q-13 11 -27 27t-14 36q24 -10 47.5 -23.5t48.5 -19.5q19 -4 41.5 -5.5t40.5 5.5q21 16 31 38.5t16 47t13 45.5q2 18 1 33
t-7 28q-12 13 -30 13.5t-36 -4.5t-32 -10q-12 -6 -21 -19.5t-19 -23.5t-27 -7q-15 11 -9.5 25.5t8.5 26.5q16 35 39 68.5t36 68.5q-1 5 -9.5 8.5t-13.5 3.5q-19 -2 -34 -11t-31 -18q-2 5 -4.5 10.5t-6.5 7.5q2 21 -3.5 37.5t-2.5 33.5q14 4 36 5.5t36 5.5q33 10 74.5 19
t72.5 27q21 37 28 73q-1 7 -4.5 15t-14.5 8q-33 6 -64.5 -11.5t-58.5 -34.5q-1 -4 -5 -6t-6 -4q-12 -6 -15 5t-9 17q-4 15 -8 33t3 32q22 2 44 7t45 8q24 3 51.5 8.5t55 7t51.5 -7.5q14 -5 30 -9.5t29 -12.5z" />
    <glyph glyph-name="cid01435" unicode="&#x5b9a;" horiz-adv-x="1000" 
d="M554 692q-9 -2 -11 -8.5t-4.5 -11.5t-15.5 -5q-24 1 -47 0.5t-46 10.5q-27 0 -35 10t-5 26t8 33t3 29q6 7 7.5 17t4.5 18.5t14 9.5q6 -2 12.5 -2.5t10.5 -5.5q-3 -16 6.5 -29t25 -23.5t30.5 -20.5t23 -22q8 -4 14.5 -9.5t4.5 -16.5zM965 -24l-16 -5t-38.5 -11t-43.5 -8.5
t-32 2.5q-40 -1 -81 0.5t-80 6.5q-4 11 -6 22t-7 21l-21 22q-11 13 -38.5 28t-57 27.5t-47.5 17.5q-8 7 -18.5 8t-18.5 11q-27 7 -50.5 18.5t-47.5 19t-55 1.5l-8 -4t-4 -7q-9 -14 -27 -26.5t-29 -27t-1 -36.5q2 -4 3.5 -7.5t-0.5 -7.5q-1 -3 -16 -5.5t-22 -13.5
q-27 -8 -42 -12.5t-30.5 -6t-46.5 -1.5q1 11 17.5 26t25.5 23q46 39 74.5 71t46 71t28.5 98q2 10 3 16t-4 16q3 5 9.5 2.5t10.5 -3.5q11 -6 25 -8t26.5 -6.5t17.5 -19.5q-2 -11 -8 -21t-8 -21q12 -16 31 -22.5t35 -15.5q14 35 11.5 72.5t-0.5 74.5q-11 19 -27.5 17
t-34 -12.5t-31.5 -18.5q-21 8 -26.5 28.5t-13.5 37.5q0 7 -1.5 14t-0.5 14q8 3 17.5 1.5t18.5 1.5q21 6 51.5 10t48.5 17q42 11 82.5 27t81.5 26q9 8 13.5 4t8.5 -9.5t11 -1.5q14 8 34 21.5t21 29.5q-1 4 0.5 8.5t-3.5 7.5q-1 24 -25 27.5t-60 -5t-74 -22.5t-69.5 -26.5
t-44.5 -15.5q-7 1 -14.5 -1.5t-15.5 -1.5q-18 -4 -36 -9t-32 -18q-4 1 -10.5 12t-11.5 24t-6 17l-2 4q5 6 11.5 7t12.5 2q22 6 44 12.5t44 11.5q8 2 28 7.5t45 13t48.5 14.5t40 11.5t17.5 4.5q52 15 94 1.5t76.5 -45t61.5 -71.5q2 -11 8 -17t4.5 -11.5t-23.5 -15.5
q-43 -1 -85.5 -5t-86.5 3q-5 -10 0.5 -19.5t6.5 -19.5q-8 -1 -16 -4.5t-16 -5.5q-21 -14 -49 -24q-12 -12 -21.5 -23t-10.5 -29q-1 -5 -3.5 -14.5t-2.5 -13.5q8 -8 25 -5.5t37.5 9.5t39.5 15t30 11q10 -12 10 -28t12 -28q0 -3 -15.5 -10t-33 -14t-23.5 -12q-7 2 -12.5 -2.5
t-12.5 -5.5q-10 -9 -25 -13t-26 -11.5t-10 -25.5q1 -7 0.5 -20t3.5 -19q12 -15 36 -29t52.5 -27t55.5 -23.5t45 -18.5q41 -16 83.5 -26l85 -20t81.5 -29v-4q4 5 11 -0.5t11 -7.5q-2 -3 -0.5 -6.5t2.5 -6.5zM254 545q6 -7 0.5 -13t-5.5 -13q-9 -14 -11 -34.5t2 -37.5
q5 -7 8 -20.5t-1 -21.5q-8 -16 -29 -14.5t-42 11.5t-31 17q-6 5 -7.5 11t-6.5 10q3 11 15.5 27.5t29 33.5t32.5 30.5t26 17.5q2 8 9.5 3z" />
    <glyph glyph-name="cid01532" unicode="&#x660e;" horiz-adv-x="1000" 
d="M820 704q0 -8 -6 -21t-9 -22q-8 -25 -10.5 -52t-3.5 -54q0 -75 1.5 -150t5.5 -150q2 -68 3 -136.5t13 -135.5q-8 -5 -31.5 1.5t-53.5 19.5t-61 27.5t-55.5 27.5t-35.5 18q-6 7 -13.5 14t-6.5 17q13 0 25 -3.5t25 -5.5q24 -3 48.5 -3t49.5 1q11 12 10.5 28.5t-0.5 30.5
q1 35 -0.5 69.5t-3.5 68.5q-2 48 -2 96t-2 97q-2 44 -1 88.5t-16 84.5q-16 12 -45.5 10t-45.5 -16q-10 -9 -12.5 -26t-2 -35.5t-0.5 -30.5l7 -1q11 7 29.5 12t31.5 2q8 -8 9 -19.5t-1 -22.5q-10 -18 -19.5 -23.5t-19.5 -7.5t-19.5 -8.5t-19 -24t-18.5 -55.5l5 -6q25 2 48 12
t48 8q9 -10 6.5 -24.5t1.5 -27.5q-20 -15 -39 -22t-36 -14t-31.5 -20.5t-25.5 -41.5q-9 -22 -15.5 -44.5t-21.5 -40.5l-15 -33q2 -17 5 -31t-12 -28q-29 -28 -72.5 -46t-84.5 -22q8 24 25 41.5t35.5 35t28.5 39.5l-56 32t-51 38q-10 4 -16.5 11.5t-14.5 14.5l2 8
q14 1 26.5 -4.5t25.5 -4.5q5 -2 11 -1t12 1q10 16 8.5 30t-4.5 26.5t2 21.5l1 22q-27 -24 -54 -47.5t-55 -47.5q-25 -22 -48 -47.5t-49 -48.5q-12 4 -21 13.5t-21 11.5q-3 8 -11 14t-11 12t7 14q23 20 50.5 37t51.5 37q-7 42 -12 84t-7 84q-1 36 0 72t-4 72q9 10 33 19
t50 16t39 11q32 9 56.5 14t50 3.5t57.5 -11.5l14 -10q-5 -13 -15 -23t-15 -24q-7 -22 -10.5 -62.5t-5 -90t-1 -100t3 -92.5t5.5 -66q25 44 41.5 101.5t25 120.5t11.5 123.5t1 110.5q0 10 -5.5 24.5t-1.5 23.5q5 7 13 10t15 4q31 3 65.5 11t70 14t69.5 5.5t63 -14.5
q6 -3 10 -6.5t4 -11.5zM356 401q4 47 5.5 96t-9.5 97q-21 25 -38 22.5t-29 -21.5t-18 -43.5t-4 -43.5q19 -9 35 6q7 -2 15.5 -1t13.5 -4q3 -19 9 -35q-2 -9 0.5 -16.5t-8.5 -13.5q-17 -10 -35.5 -15.5t-35.5 -16.5q-8 -14 -5.5 -32t-0.5 -34l3 -5q26 15 50.5 31t51.5 29z
" />
    <glyph glyph-name="cid01569" unicode="&#x6ce8;" horiz-adv-x="1000" 
d="M704 622q2 -11 -8 -19t-15 -17q-21 -7 -43.5 -1t-45 16t-43.5 12q-5 4 -7 10.5t-4 12.5q5 15 6 31t7 31q-5 17 7 28t20 22q14 4 27.5 -0.5t16.5 -19.5q8 -36 33.5 -58t48.5 -48zM390 571q-7 -7 -9 -17.5t-12 -15.5q-31 -1 -65 4.5t-56 31.5q2 21 9 45t12 44q3 10 12 17.5
t17 11.5q6 -1 12.5 -2t12.5 -5q6 -33 25.5 -61t41.5 -53zM913 100q5 -33 -7 -58q-23 4 -42.5 15t-41.5 16q-71 19 -147 18.5t-151.5 -14t-144.5 -34.5q-3 -5 -7.5 -4.5t-9.5 2.5q-7 18 -14 37t-8 38q49 8 97.5 17t97.5 16q7 5 18 8.5t13 13.5q3 12 3.5 34.5t-10.5 31.5
q-23 5 -45.5 -3.5t-45.5 -6.5q-4 14 -8.5 27.5t-6.5 28.5q3 6 0.5 12t-2.5 10.5t9 5.5q55 8 106 19q11 37 7 53.5t-18 19t-34 -3.5t-42 -14q-7 4 -17 20.5t-16 34.5t-3 25q2 2 27 7.5t63.5 13t81.5 15t82 12t65 5.5t30 -4q-1 -18 -3 -36t-3 -36q-20 -2 -42.5 -3t-41 -9
t-27.5 -32q0 -10 -3.5 -23t6.5 -21q17 5 34.5 4.5t33.5 -2.5q9 -7 7.5 -16.5t-4 -20t2.5 -19.5q-4 -4 -2.5 -7t-3.5 -7q-7 -6 -24 -6t-33.5 -3.5t-22.5 -18.5q-6 -16 -4.5 -34t-2.5 -35q3 -6 5 -12.5t8 -10.5q46 0 91.5 2.5t90.5 3.5q12 0 17 -9t8 -19.5t9 -17.5zM369 357
q-1 -5 -1.5 -11t-2.5 -12q-13 -86 -39 -173t-77 -160q-3 -1 -7 -1.5t-7 0.5q-38 31 -61.5 82t-31.5 107.5t0 102.5q2 12 8 35t14.5 49.5t17 48t15.5 29.5q10 12 28 4.5t35.5 -22t22.5 -23.5q0 -7 -16 -25t-36.5 -45t-36.5 -61.5t-17.5 -75.5t23.5 -88q23 -4 43 13.5t37 47
t31 63t25 63t18 45.5q-3 10 8 14z" />
    <glyph glyph-name="cid02851" unicode="&#x7406;" horiz-adv-x="1000" 
d="M851 652q3 -5 -1.5 -10t-6.5 -10q-13 -31 -22.5 -66.5t-17.5 -67.5q-7 -34 -13 -68.5t-18 -66.5q-4 -5 -11 -4t-13 1q-22 8 -47 11t-49 -4q-1 -15 -1.5 -30t0.5 -29q28 5 56 3.5t55 3.5q4 -2 8 -4.5t6 -7.5q-6 -13 -2.5 -31t-4.5 -29q-28 0 -57 -1.5t-57 -9.5
q-2 -12 -0.5 -34t4.5 -34q39 -3 79 -2t80 4q14 2 27 6.5t26 5.5q10 -19 21.5 -36.5t29.5 -30.5q5 -3 5 -7q0 -5 -1 -9t0 -9q-4 -7 -2.5 -15.5t-4.5 -14.5q-63 15 -126.5 25.5t-128.5 11.5q-23 0 -57.5 -2t-71.5 -6.5t-70 -11t-54 -15.5q-28 -10 -57 -18q-4 -4 -9 -8.5
t-12 -5.5q-9 6 -13 17t-7 23t-11 19q-2 17 8 18.5t24 0t22 5.5q31 8 71 13t78.5 12.5t64.5 20.5q17 8 14.5 26t-3.5 32q-5 9 -22 10t-37.5 -3.5t-38.5 -10.5t-26 -9q-5 21 -10 38.5t-1 39.5q32 8 64.5 7t63.5 9l9 12l-2 51q-4 8 -13.5 3t-15.5 -4q-13 -4 -26 -9t-25 -14
q-11 2 -13.5 13.5t-6.5 20.5q-19 46 -30 84.5t-18 78t-16 87.5q3 13 14 18.5t25 8t24 5.5q17 6 45 13t60.5 13t61.5 10t47 4q37 0 80.5 -10.5t76.5 -26.5zM654 575q9 -1 17.5 0.5t16.5 -0.5q11 -10 10.5 -24.5t-1.5 -28.5q-7 -12 -20.5 -14.5t-24.5 -7.5q-1 -15 -2 -29.5
t0 -29.5q34 -8 65 4q5 14 8.5 41.5t5.5 55.5t2 44q0 31 -13 47t-29.5 16.5t-27.5 -18t-7 -56.5zM575 611q-35 2 -55.5 -11.5t-20.5 -52.5q0 -32 5 -68t19 -65q11 -1 21.5 0.5t21.5 1.5q16 8 19.5 13t1.5 15t-2 30q-7 5 -17 4t-19 -1t-15 8q-4 8 -9.5 20.5t-5.5 20.5
q0 5 2 11q8 2 23 4.5t27.5 8t11.5 16.5q0 8 -2 14.5t-1 13.5zM237 421v81q-9 9 -18.5 7.5t-19 -6.5t-18.5 -7q-4 5 -5.5 11t-8.5 7q-2 5 -4.5 10.5t-1.5 11.5q-8 13 -11 27.5t-12 26.5q0 11 6.5 11.5t15.5 -1.5t15 1q20 2 50 12t62.5 20.5t60.5 16t43 -2.5q0 -16 1.5 -33
t-3.5 -34q-10 -10 -22.5 -13.5t-23 -9t-16.5 -23.5q-6 -19 -8.5 -40t-1.5 -41q5 -4 16 -2t24 5.5t22 0.5q2 -16 2 -32.5t1 -32.5q-11 -6 -25.5 -10.5t-26 -11.5t-15.5 -23q-6 -22 -7 -51t0 -52l6 -3q17 2 42 16.5t50 15.5q2 -4 3 -8t-1 -9q-11 -11 -38.5 -35.5t-63.5 -54
t-72 -57.5t-64.5 -47.5t-39.5 -21.5q-13 14 -21.5 31.5t-19.5 33.5q38 19 73 41t68 47q9 21 8.5 45.5t-0.5 46.5q0 15 -1.5 22.5t-15.5 16.5q-18 -3 -34.5 -11.5t-34.5 -11.5q-9 10 -12.5 25.5l-7 31t-14.5 25.5q17 10 36 12t40.5 6.5t42.5 19.5z" />
    <glyph glyph-name="cid03592" unicode="&#x610f;" horiz-adv-x="1000" 
d="M847 476l-5 -13q-73 23 -153.5 27.5t-159.5 -6.5t-150 -35q-47 -16 -94.5 -27t-94.5 -31q-9 -8 -19.5 -11t-15.5 -15l-16 -6q-9 14 -16.5 30t-12.5 30q46 9 94 25.5t94 28.5q18 5 37 10t38 12q3 3 -2.5 12t-4.5 11q-6 10 -4.5 18t2.5 16t-5 17q-16 -3 -36 -9.5t-33 -17.5
q-10 6 -12 11t-2.5 11t-6.5 15l-6 21q-1 5 -2.5 9.5t2.5 8.5q27 4 57 8.5t58 10.5q34 1 63.5 12t59.5 24q-4 5 -10 5.5t-11 4.5q-9 13 -25.5 21t-26.5 19t0 31q11 20 18 36.5t21 33.5q6 7 16 7t17 -5q-3 -25 8.5 -44t26 -36t19.5 -37q-2 -2 -6.5 -10.5t-3.5 -10.5
q20 -2 42.5 2t44.5 7l40 12q3 -1 5.5 -1.5t5.5 -2.5q0 -13 6.5 -24.5t12 -23t0.5 -25.5q-18 -7 -37.5 -8t-38.5 -6q-5 -4 -1.5 -7.5t6 -7t-6.5 -6.5q-3 -6 -8.5 -11.5t-10.5 -11.5q-3 -4 -6 -7t-5 -6q9 -12 27 -9t31 1q35 4 71.5 6.5t72.5 9.5q5 1 8 -2.5t7 -5.5
q-3 -8 2.5 -16t9.5 -15q18 -10 21.5 -23.5t3.5 -30.5zM875 136q-4 -12 -9 -22t-10 -21q-22 4 -33.5 22t-31.5 33q-22 17 -45 34.5t-41 35.5q-6 6 -15.5 10t-0.5 15q8 7 17.5 5.5t18.5 0.5q33 -4 62.5 -6.5t60.5 -10.5q7 -23 10 -49t17 -47zM761 -15q-25 -14 -54 -15.5
t-58 -1.5q-71 1 -140.5 16t-131.5 41q-15 22 -17.5 50t-8.5 52q-3 12 -6.5 25t2.5 24q7 5 17.5 7t17.5 -1q2 -22 9.5 -44.5t26.5 -38.5q41 -31 94 -38.5t101 -3.5q14 2 27.5 8t17.5 21q0 24 -9 45t-20 40q-4 3 -8 9t-8 10t-12 -2q-22 -16 -45 -39.5t-46 -43.5l-4 2
q-11 14 -24.5 27.5t-21.5 29.5q2 15 16.5 16.5t24.5 8.5q18 13 40.5 15.5t41.5 15.5l-48 25q-23 2 -44 -2.5t-43 -11.5q-3 -4 -7 -1t-8 0q-15 -8 -32 -12l-34 -8q-16 3 -21.5 16.5t-12.5 25.5q-17 32 -29 65.5t-15 68.5q44 17 89.5 32.5t91.5 25.5q43 15 95.5 18t98.5 -13
q10 -2 19.5 -4t17.5 -8q13 -12 7.5 -22t-16.5 -19.5t-14 -21.5q-5 -20 -13.5 -40t-21.5 -37q-4 -11 -12.5 -24.5t-15.5 -24.5q-5 -1 -3.5 -5t0.5 -6q4 -7 10 -7.5t12 2.5q6 4 12 5.5t12 -0.5q1 -7 -6.5 -11.5t-12.5 -9t3 -12.5q45 -46 75.5 -101t43.5 -118zM321 217
q-7 -17 -10 -31.5t-12 -30.5q-1 -14 -8.5 -27t-9.5 -27q-10 -22 -17 -46.5t-15 -45.5q-8 -5 -14.5 -1t-13 10t-15.5 7q-10 11 -22 20.5t-19 22.5q38 38 72 81.5t76 76.5q3 1 4 -2.5t4 -6.5zM538 591q-13 8 -28 5.5t-29 -5.5q-23 -6 -36 -26t-15 -42q3 -1 7 -2t8 0
q18 9 39 15t37 18t17 37zM594 394q-2 9 -10.5 14.5t-15.5 8.5q-33 -3 -74 -9.5t-72 -16.5q-12 -7 -27.5 -12.5t-22.5 -20.5q-21 -44 7 -81q7 -4 13.5 -3.5t14.5 -2.5q24 5 54 7.5t59.5 8.5t49.5 20t24.5 39t-0.5 48zM543 386l-1 -15l-1 -25q-33 -7 -65 -18t-62 -25
q-7 9 -10.5 13t-5.5 17l-3 16q38 11 73.5 21.5t74.5 15.5z" />
  </font>
</defs>
</svg>
